<svg xmlns="http://www.w3.org/2000/svg" style="display: none;">
  <symbol id="tiger" viewBox="0 0 100 100">
<g>
	<path d="M24.4,27.5c-3.9-3.7,0.6-11.8-1.9-15.7c5.3,3.9,10.7,5,12.5,8.3c-0.1,0.2-0.1,0.1,0,0c0,0,0.1,0.2,0.1,0.2
		c0,0-0.1-0.1-0.1-0.2c0.9-1.9,6.7-2.7,8.9-3c2.6-0.4,3.2-0.4,6.1-0.1l0,0c0,0,0.1,0,0.1,0l0,0c1.1-0.1,2.2-0.2,3.1-0.2
		c1.6,0,10.8,1,11.8,3.4c-0.1,0.2-0.1,0.2-0.1,0.2c0,0,0-0.1,0.1-0.2c0,0.1,0,0.1,0,0c1.9-3.3,7.4-4.5,12.5-8.3
		c-2.6,4,2.1,11.9-1.9,15.7c6.5-5.2,0.3-12.5,1.9-15.7c0.3-0.2,0.2-0.1,0.3-0.2c0,0-0.1,0-0.2,0.1c0-0.1,0-0.1,0.1-0.1
		c0,0,0,0.1-0.1,0.1c-3.4,1.7-10.1,1.9-12.6,8.4c-0.9-2.4-9-4.5-11.8-4.6c-1.1-0.1-2.2,0-3.2,0.1c-2.9-0.3-4-0.1-6.3,0.4
		c-2.4,0.5-7.8,2.1-8.7,4.1c-2.3-6.2-9.4-6.7-12.6-8.3c0-0.1-0.1-0.1-0.1-0.1c0,0,0,0,0.1,0.1c-0.2-0.1-0.2-0.1-0.2-0.1
		c0.1,0,0,0,0.3,0.2C24.1,15.1,17.8,22.3,24.4,27.5z"/>
	<path d="M13.9,60c0,0,0,0.1,0,0.1c0,0.1,0,0.2,0.1,0.2c0,0,0,0,0,0c0,0.1,0,0,0.1,0.3c-0.1-0.3,0-0.2-0.1-0.3c0,0,0,0,0,0
		c0,0,0,0,0,0c0,0,0-0.1,0-0.1c0.1-0.4,0.7-0.9,1.1-1.7c-1,4.5,0.4,8.9,3.3,12.5c0.3,0.7,0.5,0.9,1.1,2c0,0,0-0.1-0.1-0.4
		c-0.1-0.7-0.1-2.4-0.2-4c1.6,5.9,6.4,9.2,12.2,11.2c0.7,0.2,0.6,0.2,0.8,0.3c0,0-0.1,0-0.2-0.1c0.1,0,0.1,0,0.1,0.1
		c0,0-0.1,0-0.2-0.2c-0.2-0.2-0.3-0.4-0.4-0.6c-0.4-0.8-0.6-2-1.1-3.5c1.7,2.8,7.1,3.3,9.6,7.4c0,0.1,0.1,0.1,0.1,0.1
		c-0.3-0.8-0.4-1-0.5-1.3c0.1,0.1,0.2,0.2,0.2,0.2s0-0.1-0.1-0.2c-0.2-0.6-0.3-1.6-0.9-2.7c0.7,0.7,1.4,1.2,2.1,1.6
		c2.9,1.7,7.9,1.8,8.9,6.8c0,0,0,0,0-0.1c0.1,0.4,0.1,0.6,0.1,0.8c0-0.1,0,0,0-0.2c0,0.2,0,0.1,0,0.2c0-0.3,0-0.4,0.1-0.8
		c0,0.1,0,0.1,0,0.1c0-0.1,0-0.1,0.2-0.8c0.3-0.8,0.8-1.5,1.2-2c2.7-3.1,6.1-2.1,9.6-5.6c-0.6,1-0.7,2.1-0.9,2.7
		c0,0.2-0.1,0.2-0.1,0.2s0-0.1,0.2-0.2c-0.2,0.4-0.3,0.6-0.5,1.3c2.3-3.9,8-4.7,9.7-7.5c-0.5,1.7-0.8,3.4-1.5,4.1
		c-0.1,0.1-0.2,0.2-0.2,0.2c0,0,0,0,0.1-0.1c-0.1,0-0.1,0.1-0.2,0.1c2.8-1.1,10.4-3.1,13-11.3c0-0.1,0-0.2,0.1-0.2
		c0,0.2,0,0.4,0,0.6c0,0.3,0,0.6,0,0.9c-0.1,3.4-0.2,2.3-0.2,2.9c0.6-1.2,0.8-1.3,1.1-2c0.1-0.2,0.3-0.3,0.4-0.6
		c0.2-0.3,0.4-0.6,0.6-0.9c0.1-0.2,0.2-0.4,0.3-0.5c1.9-3,2.6-6.8,1.9-10.5c0.5,0.8,1,1.4,1.1,1.7c0,0,0,0.1,0,0.1c0,0,0,0,0,0
		c0,0,0,0,0,0c0,0.1,0,0-0.1,0.3c0.1-0.3,0.1-0.2,0.1-0.3c0,0,0,0,0,0c0,0,0-0.1,0.1-0.2c0,0,0-0.1,0-0.1c1.7-6.1,0.8-11.4-2.2-16.1
		c0.8,0.8,1.7,1.8,2.2,2.6c0.6,0.9,0.6,1.5,0.6,1.6c0,0,0,0,0-0.1c0,0,0,0,0,0c0-0.1,0.1-0.6,0-1.3c0-0.1,0-0.3-0.1-0.4
		c0-0.1,0-0.2-0.1-0.3c-0.8-10.1-5.3-13.8-12.5-19.8c3.4-2.8-0.1-7.3,1.2-9.3c0-0.1,0.1-0.1,0.1-0.1c-3,3.5,0.3,7.1-1.3,9.4
		c-1.3-1.1-1.7-1.5-2.4-3.3c0.6,1.9,0.7,2.1,2.2,3.8c5.7,6.2,9.5,9,12.1,17.6c-1.3-2.4-3.4-3.8-5.8-5.2C80,39.1,79.9,39,79.9,39
		c0,0,0,0,0.1,0.1c-0.2-0.1-0.3-0.2-0.3-0.2s0.1,0.1,0.3,0.3c2.1,2.2,6.5,11.8,6,19.6c-0.1-2.8-2.2-3.8-2.6-4.2c0,0,0.1,0.1,0.1,0.2
		c0,0,0,0,0,0.1c0,0.1,0.1,0.3,0.1,0.5c0.7,4-0.3,10.1-1.7,14c0.5-2.4-0.1-3.8-0.8-5.8c0,0,0,0.1,0,0.4c0,0.2,0,0.4,0,0.7
		c0,0,0,0,0,0.1c0,0.1-0.1,0.3-0.1,0.5c-1.2,5.5-6.6,11-11.7,14c0.5-0.5,0.9-1.1,1.1-1.7c0.4-1.5-0.2-2.6-0.5-3.4c0-0.1,0,0,0-0.3
		c0,0,0,0.1,0,0.2c0-0.1,0-0.1,0-0.1c-0.4,2.8-4.1,2.5-7.1,4.9c0.2-0.8,0.2-1.4,0.3-1.8c0-0.2,0.1-0.2,0.1-0.2c0,0-0.7,1.2-3.3,2.6
		c-1.6,0.9-2.3,1-4.1,1.6c3.7-2,5-4.6,5.2-8.8c1.3-0.7,2.5-1.7,3.4-2.9c3.1-1.4,5.6-3.3,6.9-6.3c-0.1,1.3-0.2,2.4-0.4,3.3
		c-0.7,0.9-0.8,1-0.9,1.1c0,0,0.1-0.1,0.8-0.7c-0.1,0.2-0.1,0.2-0.1,0.2c0,0,0-0.1,0.3-0.4c6.2-5,6.5-7.9,5.4-14
		c-0.1-0.4-0.1-0.7-0.1-0.7s0,0.2,0,0.7c-0.1,5.4-1.4,7.9-4,11.8c0.9-2.4,0.3-4.3-0.1-5.9c-0.1-0.2-0.1-0.4-0.1-0.4
		c-0.1,0.2,0.5,3.4-7,9.9c1.1-2.1,1.5-4.5,1.3-6.8c-0.4-4.3-2.4-6.2-5.3-9.4c2.5,3.3,4.2,5.4,4.2,9.5c-0.7,0.4-4.7,1.9-5.8,2
		c-0.9,0.1-0.5,0-0.7,0c0.3,0,3.8,1.9,6.5-1.1c0,0.9-0.1,1.6-0.3,2.3c-1.9,1.3-5.8,2.1-7.4,2.2c-0.3,0-0.4,0-0.4,0
		c0.5,0,4.3,1.8,7.3-0.7c-0.2,0.6-0.5,1.1-0.7,1.6c-2.2,1.3-7.2,2.2-8.9,2.4c-0.3,0-0.5,0-0.5,0c2.9,0.6,5.4,1.1,7.9-0.4
		c-4.7,4.9-11.8,2.9-12.4,0.4c0-0.1,0-0.1,0-0.3c0,0.1,0,0.1,0,0.3c0-0.1,0-0.1,0-0.2c0-0.1,0-0.1,0,0c0,0,0,0.1,0,0.2
		c-0.6,2.5-7.7,4.5-12.4-0.4c2.9,1.7,5.9,0.8,7.9,0.4c-2.9-0.4-6.9-0.9-9.4-2.4c-0.3-0.5-0.5-1-0.7-1.6c2.9,2.4,6.5,0.8,7.3,0.7
		c0,0-2.1-0.1-5-1c-1-0.3-1.9-0.7-2.8-1.3c-0.2-0.8-0.3-1.5-0.3-2.3c2.7,3,6.3,1.1,6.5,1.1c-0.2,0-0.1,0.1-1.2-0.1
		c-1.6-0.4-4.7-1.5-5.3-1.9c0-4.1,1.7-6.3,4.2-9.5c-1.1,1.3-2.4,2.4-3.4,4c-2.7,3.9-2.4,9-0.6,12.3c-7.5-6.6-6.8-9.6-7-9.9
		c0,0.8-1.3,3.3-0.1,6.3c-2.9-4.1-3.9-6.6-4-11.8c0-0.4,0-0.7,0-0.7c-0.4,2.4-1,4.8-0.4,7.1c0.7,3.2,3.3,5.5,5.7,7.5
		c0,0,0.1,0.1,0.1,0.1c0.1,0.2,0.2,0.3,0.2,0.3s0-0.1-0.1-0.2c0.7,0.6,0.7,0.6,0.8,0.7c-0.1-0.1-0.2-0.2-0.9-1.1
		c-0.2-1-0.2-1.7-0.4-3.3c1.4,3,3.9,5,6.9,6.3c0.9,1.2,2,2.2,3.4,2.9c0.3,4.9,2.1,7.2,5.2,8.8c-1.8-0.6-2.4-0.7-4.1-1.6
		c-2.6-1.4-3.3-2.5-3.3-2.6c0.2,1.1,0.2,1.4,0.4,2.1c-1.4-1.1-2.6-1.5-4.2-2.1c-3.1-1.2-2.8-2.7-2.8-2.7c0,0,0,0.1,0,0.1
		c0-0.1,0-0.2,0-0.2c0,0.3,0,0.2,0,0.3c-0.2,0.7-1.3,2.9,0.2,4.7c0.1,0.1,0.2,0.3,0.4,0.4c-5.2-3.1-11.9-9.6-11.8-15.6
		c-0.7,2.1-1.3,3.4-0.8,5.8c-1.3-3.6-2.1-8.2-1.9-12.1c0-0.4,0.1-0.7,0.1-1.1c0-0.2,0-0.3,0-0.4c0-0.1,0-0.3,0.1-0.4
		c0.2-0.8,0.2-0.6,0.2-0.8c-1.3,1.1-2.5,2-2.6,4.2c-0.4-7,3.5-17.1,6.4-19.9c0,0-0.1,0.1-0.3,0.2c0-0.1,0.1-0.1,0.1-0.1
		c0,0,0,0-0.1,0.1c-1.3,0.7-4.2,2.2-5.8,5.2c1.3-4.5,3.6-8.6,6.8-12c7.1-7.3,6.6-7,7.4-9.4c-0.6,1.7-1.1,2.2-2.4,3.3
		c-1.6-2.2,1.7-6.1-1.2-9.3c0-0.1-0.1-0.1-0.1-0.1c0,0.1,0.6,0.6,0.2,2.9c-0.5,2.5-1,4.8,1.1,6.5c-6.3,5.2-10.7,8.5-12.2,17.4
		c-0.1,0.7-0.2,1.3-0.2,1.8c0,0.2,0,0.4-0.1,0.6c0,0.1,0,0.2-0.1,0.3c0,0.1,0,0.3-0.1,0.4c-0.1,0.8,0,1.1,0,1.3c0,0,0,0,0,0
		c0,0.1,0,0.1,0,0.1c0,0,0-0.6,0.6-1.6c0.5-0.9,1.4-1.8,2.2-2.6C13.1,48.6,12.2,54,13.9,60z M50,87.5c0-0.2,0-0.3,0-0.5
		c0-0.1,0-0.2,0-0.3c0,0.1,0,0.2,0,0.3C50,87.1,50,87.3,50,87.5z M50,69.8c0.4,1.8,3.1,2.9,4.9,3.2c-0.1,0.1-0.4,0.4-1.1,0.4
		c-0.4,0-1,0-1.6,0c-4.5-0.1-5.4,0.5-6.2-0.6C47.6,72.3,49.7,71.3,50,69.8z M39.3,73.2c-0.1-0.4-0.3-0.8-0.4-1.2
		c2.2,1.1,4.5,1.4,6.8,0.8c0,0.5,0.4,0.9,0.8,1.1c0.7,0.4,1.7,0.4,3.7,0.3c0.7,0,2.9-0.1,3.6-0.2c0.9-0.2,1.2-0.9,1.1-1.1
		c2,0.3,4.1,0,6-1c-0.4,2.2-2.1,5.4-5,7.1c-0.6,0.3-1.1,0.6-1.7,1c-2.4,1.5-2.8,3.1-3.4,4.2c2.4-7.8,3-8.2,3.1-8.4
		c-1.4,1.6-3.3,3.2-4,6.9c-0.6-3.4-2.2-4.9-4-6.9c0.1,0.2,0.7,0.6,3.1,8.4c-0.7-1.2-1-2.6-3.4-4.2C43.8,79,41.2,78.1,39.3,73.2z"/>
	<path d="M14.1,60.3C14.1,60.3,14.1,60.3,14.1,60.3C14.1,60.3,14.1,60.3,14.1,60.3z"/>
	<path d="M22.3,56c0.2-0.9,0.4-2.5,0.9-3.3c0.3-0.5,0.4-0.6,0.4-0.6c-0.2,0.2-1.5,0.8-2.2,2.4c-0.1-3.3-0.1-7.2,0.7-10.1
		c0,0-0.1,0.2-0.2,0.5c0.2-0.7,0.3-0.6,0.4-0.6c-0.8,0.3-2.1,1.2-2.7,2.2c1.2-5.7,4.8-12.1,8.6-16.8c-4.8,4.4-8.3,7.9-8.8,15.4
		c0,0.5,0,1.8,0,2c-0.4,1-0.3,1.7-0.3,2.3c0.9-1.3,1.3-1.4,2-2.6c-2.3,5.9-0.2,10.2,0.7,13.5c0,0,0-0.1,0-0.3
		c0.1,0.3,0.1,0.4,0.1,0.4C21.8,59.5,21.4,61.4,22.3,56z"/>
	<path d="M44.3,55.1c-0.2,0.7-0.3,1.1-0.3,1.1c0-0.1,1.3-3.8,1.6-6.3c1.1-7.7-1.5-16.8-9.3-19.4C44.1,33.6,45.7,47.2,44.3,55.1z"/>
	<path d="M48.5,26.6c-0.3,0.9-0.8,1.8-0.8,2.8c-1-2-2.6-2.7-4.1-2.4c-1.6,0.3-3.5,1.7-5.2,0.7c3.3,3.1,5.5-1.5,9.2,2.2
		c0,1,0.5,1.5,0.5,1.6c-0.5-1.7,1.4-2.9,1.8-5c0.5,2.1,2.4,3.3,1.8,5c0-0.1,0.5-0.6,0.5-1.6c0.2-0.2,0.4-0.4,0.7-0.6
		c1.8-1.3,3-0.9,4.1-0.7c3.3,0.7,4.3-0.9,4.4-0.9c0,0-0.8,0.8-3.1,0c-1.2-0.4-2.2-0.9-3.4-0.6c-1,0.2-2,0.9-2.7,2.4
		c-0.1-1.1-0.5-1.9-0.8-2.8c-1.1-3.1-0.6-4.6-0.6-4.6c-0.2,0.4-0.7,1.1-0.9,2.1c-0.2-1.1-0.8-1.8-0.9-2.1
		C49.1,22.1,49.6,23.5,48.5,26.6z"/>
	<path d="M35.3,28.2C33.5,29.9,34,30.9,34,31c0-1.8,2.5-1.4,4.1-4c0.7-0.4,1.3-0.8,1.9-1.3c0,0,0.1-0.1-0.1,0.3
		c1.1-1.4,3.2-1.5,5.2-2.4c3.3-1.5,3.3-4.5,3.5-4.8c-1.2,2.9-4.6,3.4-6.7,4.9c0.8-1.5,0.4-2.8,0.4-2.9c0,0,0.2,1-1.4,2.5
		c-0.6,0.5-1.3,1.1-2,1.7c0.1-1.2-0.4-2-0.4-2.1C38.5,23,39.5,24.1,35.3,28.2z"/>
	<path d="M27.5,44.1c0.2-0.9,0.1-1.6,0.1-2.5c0,0,0,0.2-0.1,0.4c-0.5,2.3-2.7,3.7-3.2,6c-1.3-3.4,4-6.8,2.7-11.1
		c-0.2-0.5-0.4-0.9-0.5-1.1c0,0.1,0.3,0.7,0.1,1.9c-0.6,2.9-5,6.7-2.3,10.4c-0.3,1.6,0.3,2.6,1.5,3.6c0,0-0.5-0.5-0.6-1.4
		c0-0.2,0-0.5,0-0.8C25.3,47.8,27,46.2,27.5,44.1z"/>
	<path d="M28.1,50.1c0.7-1.1,0.5-2.2,0-3.4c0.5,1.9-1.1,2.8-1.6,3.5c-1,1.3-1.1,4.5,1.2,6.3c-0.7-0.8-0.7-1.9-0.6-2.9
		C27.2,51,27.5,51.1,28.1,50.1z"/>
	<path d="M29.8,50C29.8,50,29.8,49.9,29.8,50c0-0.1,0,0.4-0.3,1.2c-0.7,2-2,2.7-1.8,4.7c0.1,1.5,1.3,2.5,1.4,2.6
		c0,0-0.6-0.9-0.2-2.6C29.4,53.7,30.7,53.5,29.8,50z"/>
	<path d="M31.3,60.7c0,0,0.3,0.1,0.3,0.1c-2.8-2.3,1.1-5-0.5-7.9c0-0.1,0-0.1,0-0.1c0.4,1.9-2.5,3.5-1.6,6
		C29.7,59.3,30.4,60.3,31.3,60.7z"/>
	<path d="M42.3,45.6c-0.6,0.9-1.9,1.9-2.8,2.5c-4.3,3.3-6.4,4.5-6.2,10.1c0.4-6.7,9.2-8.3,9.6-14c0,0.1-0.1,0.4-0.2,0.7
		c0.4-1.1,0.2-2.2-0.2-3.2c-2.3-5.4-10.2-4-12.6-10.8c-0.6-1.8-0.6-3.4-0.6-3.4c0,2.6-0.1,4.9,1.6,7.2c0.8,1.1,1.8,1.9,3,2.5
		c0,0.5,0,0.9,0.1,1.3c0.4,3.6,3.4,4.7,6.8,3.8c0.5-0.1,0.9-0.3,1.2-0.4c0,0,0,0,0,0C42.7,43.1,43,44.6,42.3,45.6z M39,39.5
		c-0.3,0-0.4-0.2-1.2-0.6C38.2,39.1,38.6,39.3,39,39.5z M40.7,41.9c-4.1-0.4-5.2-1.6-6.2-3.5c-0.2-0.5-0.4-0.8-0.5-1.1
		c0.9,0.5,1.6,0.8,2.6,1.2c-0.4,2,2.3,2.7,2.9,1.3c1.9,1.1,2.3,2,2.5,2.2C41.6,42,41.2,41.9,40.7,41.9z"/>
	<path d="M85.9,60.3C85.9,60.3,85.9,60.3,85.9,60.3C85.9,60.3,85.9,60.3,85.9,60.3z"/>
	<path d="M72,29.5c3.3,3.9,7.4,11.1,8.6,16.8c-0.6-1.1-2.1-2-2.7-2.2c0.1,0.1,0.1-0.1,0.4,0.6c-0.2-0.3-0.2-0.5-0.2-0.5
		c0,0.3,0.9,1.7,0.7,10.1c-0.7-1.5-2-2.1-2.2-2.4c0.1,0.2,0.6,0.3,1.3,4c0.6,3.6,0.5,3.3,0.6,4.2c0,0,0-0.1,0.1-0.4
		c0,0.2,0,0.3,0,0.3c1.4-4.2,2.8-8.1,0.7-13.5c0.2,0.4,0.5,0.8,1.2,1.5c1,1.1,0.7,1,0.8,1.1c0-0.9,0-1.5-0.3-2.3
		C81.2,36.4,73.3,31,72,29.5z"/>
	<path d="M63.7,30.5c-7.8,2.6-10.5,11.5-9.3,19.4c0.2,2.2,1.1,4.8,1.6,6.3c0,0-0.8-3.1-0.8-6.3C55.1,43.1,57.1,33.1,63.7,30.5z"/>
	<path d="M51.4,19c0-0.1,0-0.1,0-0.1c0.8,3.6,2.2,4.5,5.6,5.5c2.8,0.9,2.9,1.6,3,1.6c-0.2-0.4-0.1-0.2-0.1-0.3
		c0.6,0.5,1.3,0.8,1.9,1.3c1.2,1.9,2.7,2.1,3.5,2.8C66.1,30.4,66,31,66,31c0.3-1.7-1-2.5-2.5-4.1c-0.8-0.9-1.8-2.1-2-3.2
		c-0.1-0.6,0-0.8,0-0.8c-0.1,0.4-0.5,1-0.4,2.1c-0.7-0.6-1.4-1.2-2-1.7c-1.6-1.5-1.4-2.4-1.4-2.5c0,0.3-0.4,1.4,0.4,2.9
		C56.3,22.5,52.4,21.6,51.4,19z"/>
	<path d="M74.1,39.6c-1.3-2.6-0.6-3.7-0.6-3.8c0,0.1-1.2,1.6-0.4,4.1c0.8,2.8,3.6,5.5,2.7,8c-0.5-2.3-2.7-3.7-3.2-6
		c-0.1-0.3-0.1-0.4-0.1-0.4c-0.1,0.7-0.1,1.2-0.1,1.7c0.2,2.4,1.8,3.9,2.3,5.5c0.6,1.9-0.4,3-0.5,3c0.1-0.1,2-1.3,1.5-3.6
		C77.9,45,75.1,41.4,74.1,39.6z"/>
	<path d="M71.9,46.7c-0.1,0.2-0.3,0.5-0.4,0.9c-0.5,1.7,0.5,2.7,0.9,3.3c0.3,0.5,0.4,1.1,0.4,1.7c0.4,3.5-0.5,3.7-0.6,3.9
		c0.1-0.1,1.8-1,1.9-3.9c0.1-2.6-1.6-2.7-2.2-4.3c-0.1-0.4-0.2-0.8-0.1-1.1C71.8,46.9,71.9,46.8,71.9,46.7z"/>
	<path d="M70.9,58.5c3.4-3.8-0.3-5.2-0.7-8.2c0-0.2,0-0.4,0-0.4c-0.3,1.4-0.6,2.4,0.1,3.8c0.3,0.8,1.1,1.9,1,3.5
		C71.2,58.1,70.9,58.5,70.9,58.5z"/>
	<path d="M68.4,60.8c0,0,2.3-0.8,2.3-3c-0.1-1.6-1.2-2.7-1.6-3.8c-0.3-0.8-0.1-1.2-0.1-1.2c0,0.1-0.7,1-0.3,2.8
		c0.2,0.8,0.5,1.5,0.7,2.3C69.5,59,69.2,60.2,68.4,60.8z"/>
	<path d="M50.4,65.2c-0.1,0.4-0.1,0.7-0.2,0.9C50.1,66.7,50,67,50,67c0.4-1,0.6-2,1.4-2.5c1.3-0.9,2.3,0,4.1-1c1-0.5,2-1.3,2.6-2.1
		c2.4-3.4,0.6-7.1-0.7-10.2c1,4.1,1.5,8-1.7,10.7c0.4-1.9-2.7-3.3-5.3-0.2c-0.1,0.1-0.2,0.3-0.4,0.4c-0.3-0.2-1.9-2.5-4.1-2.1
		c-1.1,0.2-1.8,1-1.6,2c-3.3-2.7-2.7-6.6-1.7-10.7c-1.3,3-3.1,6.8-0.7,10.2c0.6,0.9,1.6,1.6,2.6,2.1c1.3,0.7,2,0.4,2.9,0.5
		c2.1,0.2,2.3,2.1,2.6,2.9c-0.3-1.2-0.2-3.1-2.5-3.8c-1.3-0.4-1.5-0.1-2.9-1.1c0.1-0.7,0.7-0.9,1.4-0.9c0.9,0,3.1,0.6,4,0.9
		c0,0-0.1,0-0.1,0c0,0,0,0,0.1,0c0.1,0,0.1,0,0.1,0c0,0,0,0-0.1,0c0.5-0.2,0.6-0.2,0.9-0.3c2-0.4,4.2-1.1,4.4,0.4
		c-0.4,0.3-0.8,0.6-1.2,0.7C53.3,63.1,51,63,50.4,65.2z"/>
	<path d="M70.7,31c0.2-1.4,0.1-2.4,0.1-3.5c0,0,0,1.6-0.6,3.4c-2.4,6.9-10.2,5.2-12.6,10.8c-0.4,1-0.6,2.2-0.2,3.2
		c-0.1-0.3-0.2-0.6-0.2-0.7c0.4,5.7,9.2,7.4,9.6,14c0,0,0-0.1,0-0.2c0.7-10.2-12.7-9.8-8.8-16c0.5,0.1,0.7,0.2,1.3,0.4
		c2.6,0.7,4.4,0.1,5.5-1c1.1-1.1,1.3-2.7,1.3-4.2C68.6,35.9,70.2,33.9,70.7,31z M62.2,39c-0.9,0.4-0.9,0.5-1.2,0.6
		C61.4,39.3,61.8,39.1,62.2,39z M64.6,39.9C63.2,41.5,60.1,42,58,42c0.1-0.1,0.6-1.1,2.5-2.2c0.6,1.4,3.3,0.7,2.9-1.3
		c1-0.4,1.8-0.7,2.6-1.2C65.9,37.6,65.1,39.2,64.6,39.9z"/>
</g>
  </symbol>
</svg>
