<svg xmlns="http://www.w3.org/2000/svg" style="display: none;">
  <symbol id="recruitment" viewBox="0 0 73 73">
    <path d="M31,31.5c1.3,0,2.4,0.6,3.3,1.7l1.7-2c-1.4-1.6-3.1-2.4-5.2-2.4c-1.9,0-3.4,0.6-4.7,1.9c-1.3,1.3-1.9,2.8-1.9,4.7   s0.6,3.4,1.9,4.6c1.3,1.2,2.9,1.8,4.8,1.8c1.9,0,3.6-0.8,5.1-2.4l-1.8-1.9c-0.9,1.1-2,1.6-3.4,1.6c-1,0-1.9-0.4-2.6-1.1   c-0.7-0.7-1.1-1.6-1.1-2.8c0-1.2,0.4-2.1,1.1-2.8C29,31.8,29.9,31.5,31,31.5z"></path><polygon points="42.8,37.1 39.6,29.1 36.6,29.1 41.6,41.7 44,41.7 49.1,29.1 46,29.1  "></polygon><path d="M69.5,49.8l-12.7-9c0.5-1.7,0.7-3.5,0.7-5.4c0-3.7-1-7.1-2.6-10.1V6.3c0-3.2-2.6-5.8-5.8-5.8H16c-1.5,0-3,0.6-4.1,1.7   l-9.7,9.7C1.1,13,0.5,14.4,0.5,16v50.8c0,3.2,2.6,5.8,5.8,5.8h42.8c3.2,0,5.8-2.6,5.8-5.8v-9.5l6.1,4.4c3.3,2.3,7.8,1.6,10.1-1.7   C73.5,56.6,72.7,52.1,69.5,49.8z M53.5,35.3c0,9.3-7.6,16.9-16.9,16.9s-16.9-7.6-16.9-16.9c0-9.3,7.6-16.9,16.9-16.9   S53.5,26,53.5,35.3z M12.4,7.3v5.1H7.3L12.4,7.3z M50.9,66.7c0,1-0.8,1.8-1.8,1.8H6.3c-1,0-1.8-0.8-1.8-1.8V56.2h2.7   c1.1,0,2-0.9,2-2c0-1.1-0.9-2-2-2H4.5v-4h6.7c1.1,0,2-0.9,2-2c0-1.1-0.9-2-2-2H4.5V16.4h9.9c1.1,0,2-0.9,2-2V4.5h32.7   c1,0,1.8,0.8,1.8,1.8v13.8c-3.7-3.5-8.7-5.6-14.2-5.6c-11.5,0-20.9,9.3-20.9,20.9c0,11.5,9.3,20.9,20.9,20.9   c4.3,0,8.4-1.3,11.7-3.6l2.5,1.8V66.7z M67.9,57.6L67.9,57.6c-1,1.5-3.1,1.8-4.6,0.8l-11.8-8.4c1.5-1.6,2.8-3.4,3.8-5.3L67.1,53   C68.6,54.1,68.9,56.1,67.9,57.6z"></path>
  </symbol>
</svg>
