<svg xmlns="http://www.w3.org/2000/svg" style="display: none;">
  <symbol id="date2" viewBox="0 0 100 100">
    <path d="M90.477,12.533V3.571C90.477,1.599,88.878,0,86.904,0c-1.973,0-3.571,1.599-3.571,3.571v8.961H16.609V3.571    C16.609,1.599,15.011,0,13.038,0S9.467,1.599,9.467,3.571v8.961H0V31.58v57.143c0,5.26,4.265,9.524,9.523,9.524h80.953    c5.259,0,9.523-4.265,9.523-9.524V31.58V12.533H90.477z M90.477,88.723H9.523V31.58h80.953V88.723z"></path><path d="M19.209,51.649c0.21,0,0.449-0.031,0.723-0.094c0.27-0.062,0.762-0.199,1.474-0.408l4.581-1.318v30.117    c0,1.465,0.772,2.196,2.321,2.196h8.281V40.857c0-0.628-0.21-1.15-0.627-1.569c-0.42-0.417-0.941-0.626-1.568-0.626    c-0.628,0-1.465,0.104-2.51,0.313c-1.048,0.209-2.219,0.501-3.514,0.878c-1.297,0.376-2.646,0.806-4.047,1.287    c-1.402,0.481-2.752,0.994-4.047,1.537l-2.572,1.066v6.525c0,0.502,0.145,0.858,0.439,1.067    C18.435,51.545,18.791,51.649,19.209,51.649z"></path><path d="M50.518,82.143h24.471v-6.588c0-1.464-0.774-2.196-2.322-2.196H59.803c0.211-0.961,0.566-1.84,1.067-2.636    c0.502-0.794,1.107-1.546,1.82-2.258c0.711-0.711,1.483-1.39,2.32-2.04c0.838-0.647,1.674-1.307,2.511-1.977    c0.962-0.752,1.902-1.568,2.823-2.446c0.92-0.879,1.736-1.852,2.447-2.918c0.711-1.065,1.286-2.268,1.726-3.607    c0.439-1.338,0.659-2.887,0.659-4.643c0-3.807-1.172-6.786-3.515-8.942c-2.343-2.153-6.044-3.23-11.104-3.23    c-2.552,0-4.874,0.24-6.965,0.721c-2.093,0.481-3.683,0.973-4.77,1.475v4.87c0,1.479,0.794,2.22,2.385,2.22    c0.46,0,1.307,0,2.541,0c1.233,0,2.646,0,4.235,0c2.134,0,3.754,0.22,4.863,0.656c1.105,0.438,1.662,1.532,1.662,3.282    c0,0.708-0.094,1.344-0.282,1.906c-0.188,0.563-0.523,1.147-1.005,1.751c-0.48,0.604-1.139,1.271-1.976,2s-1.903,1.616-3.2,2.657    c-1.13,0.918-2.28,1.896-3.451,2.938c-1.171,1.041-2.227,2.229-3.168,3.562c-0.941,1.334-1.716,2.845-2.321,4.533    c-0.608,1.688-0.909,3.615-0.909,5.781v2.939C48.197,81.414,48.97,82.143,50.518,82.143z"></path>
  </symbol>
  <symbol id="date" viewBox="0 0 100 100">
    <path d="M74.7,12.6H25.3c-7.4,0-13.5,6.1-13.5,13.5v47.8c0,7.4,6.1,13.5,13.5,13.5h49.3c7.4,0,13.5-6.1,13.5-13.5V26.1   C88.2,18.6,82.1,12.6,74.7,12.6z M25.3,19.6h49.3c3.6,0,6.5,2.9,6.5,6.5v6.6H18.8v-6.6C18.8,22.5,21.7,19.6,25.3,19.6z M74.7,80.4   H25.3c-3.6,0-6.5-2.9-6.5-6.5V39.7h62.3v34.2C81.2,77.5,78.3,80.4,74.7,80.4z"></path><path d="M39.3,46.6c-0.2,0-0.4,0.1-0.7,0.2c-0.2,0.1-0.4,0.2-0.6,0.3c-0.2,0.1-0.4,0.3-0.5,0.4c-0.2,0.2-0.3,0.3-0.4,0.5   c-0.1,0.2-0.2,0.4-0.3,0.6c-0.1,0.2-0.2,0.4-0.2,0.7c0,0.2-0.1,0.5-0.1,0.7c0,0.9,0.4,1.8,1,2.5c0.7,0.7,1.6,1,2.5,1   c0.2,0,0.5,0,0.7-0.1c0.2,0,0.5-0.1,0.7-0.2s0.4-0.2,0.6-0.3c0.2-0.1,0.4-0.3,0.5-0.4c0.7-0.7,1-1.6,1-2.5s-0.4-1.8-1-2.5   C41.7,46.7,40.5,46.3,39.3,46.6z"></path><path d="M51.9,47.1c-0.2-0.1-0.4-0.2-0.6-0.3s-0.4-0.2-0.7-0.2c-1.1-0.2-2.3,0.1-3.2,1c-0.6,0.7-1,1.6-1,2.5c0,0.2,0,0.5,0.1,0.7   c0,0.2,0.1,0.5,0.2,0.7s0.2,0.4,0.3,0.6c0.1,0.2,0.3,0.4,0.4,0.5c0.7,0.7,1.6,1,2.5,1c0.2,0,0.5,0,0.7-0.1c0.2,0,0.5-0.1,0.7-0.2   s0.4-0.2,0.6-0.3c0.2-0.1,0.4-0.3,0.5-0.4c0.2-0.2,0.3-0.3,0.4-0.5c0.1-0.2,0.2-0.4,0.3-0.6s0.2-0.4,0.2-0.7c0-0.2,0.1-0.5,0.1-0.7   c0-0.9-0.4-1.8-1-2.5C52.3,47.4,52.1,47.2,51.9,47.1z"></path><path d="M59.3,46.6c-0.2,0-0.4,0.1-0.7,0.2c-0.2,0.1-0.4,0.2-0.6,0.3c-0.2,0.1-0.4,0.3-0.5,0.4c-0.6,0.7-1,1.6-1,2.5   c0,0.2,0,0.5,0.1,0.7c0,0.2,0.1,0.5,0.2,0.7c0.1,0.2,0.2,0.4,0.3,0.6c0.1,0.2,0.3,0.4,0.4,0.5c0.6,0.7,1.5,1,2.5,1   c0.2,0,0.5,0,0.7-0.1c0.2,0,0.5-0.1,0.7-0.2s0.4-0.2,0.6-0.3c0.2-0.1,0.4-0.3,0.5-0.4c0.2-0.2,0.3-0.3,0.4-0.5   c0.1-0.2,0.2-0.4,0.3-0.6s0.2-0.4,0.2-0.7c0-0.2,0.1-0.5,0.1-0.7c0-0.9-0.4-1.8-1-2.5C61.7,46.7,60.5,46.3,59.3,46.6z"></path><path d="M67.5,47.5c-0.6,0.7-1,1.6-1,2.5c0,0.2,0,0.5,0.1,0.7c0,0.2,0.1,0.5,0.2,0.7s0.2,0.4,0.3,0.6c0.1,0.2,0.3,0.4,0.4,0.5   c0.6,0.7,1.5,1,2.5,1s1.8-0.4,2.5-1c0.2-0.2,0.3-0.3,0.4-0.5c0.1-0.2,0.2-0.4,0.3-0.6s0.2-0.4,0.2-0.7c0-0.2,0.1-0.5,0.1-0.7   c0-0.9-0.4-1.8-1-2.5C71.2,46.2,68.8,46.2,67.5,47.5z"></path><path d="M29.3,56.6c-0.2,0-0.4,0.1-0.7,0.2s-0.4,0.2-0.6,0.3c-0.2,0.1-0.4,0.3-0.5,0.4c-0.6,0.6-1,1.5-1,2.5c0,0.2,0,0.5,0.1,0.7   c0,0.2,0.1,0.5,0.2,0.7c0.1,0.2,0.2,0.4,0.3,0.6c0.1,0.2,0.3,0.4,0.4,0.5c0.2,0.2,0.3,0.3,0.5,0.4c0.2,0.1,0.4,0.2,0.6,0.3   s0.4,0.2,0.7,0.2c0.2,0,0.5,0.1,0.7,0.1c0.9,0,1.8-0.4,2.5-1c0.2-0.2,0.3-0.3,0.4-0.5c0.1-0.2,0.2-0.4,0.3-0.6s0.2-0.4,0.2-0.7   c0-0.2,0.1-0.5,0.1-0.7c0-0.9-0.4-1.8-1-2.5C31.7,56.7,30.5,56.3,29.3,56.6z"></path><path d="M39.3,56.6c-0.2,0-0.4,0.1-0.7,0.2c-0.2,0.1-0.4,0.2-0.6,0.3c-0.2,0.1-0.4,0.3-0.5,0.4c-0.2,0.2-0.3,0.3-0.4,0.5   c-0.1,0.2-0.2,0.4-0.3,0.6c-0.1,0.2-0.2,0.4-0.2,0.7c0,0.2-0.1,0.5-0.1,0.7c0,0.2,0,0.5,0.1,0.7c0,0.2,0.1,0.5,0.2,0.7   c0.1,0.2,0.2,0.4,0.3,0.6c0.1,0.2,0.3,0.4,0.4,0.5c0.2,0.2,0.3,0.3,0.5,0.4c0.2,0.1,0.4,0.2,0.6,0.3s0.4,0.2,0.7,0.2   c0.2,0,0.5,0.1,0.7,0.1c0.9,0,1.8-0.4,2.5-1c0.7-0.7,1-1.5,1-2.5s-0.4-1.8-1-2.5C41.7,56.7,40.5,56.3,39.3,56.6z"></path><path d="M53.2,58.7c-0.1-0.2-0.2-0.4-0.3-0.6c-0.1-0.2-0.3-0.4-0.4-0.5c-0.2-0.2-0.3-0.3-0.5-0.4c-0.2-0.1-0.4-0.2-0.6-0.3   c-0.2-0.1-0.4-0.2-0.7-0.2c-1.1-0.2-2.3,0.1-3.2,1c-0.2,0.2-0.3,0.3-0.4,0.5c-0.1,0.2-0.2,0.4-0.3,0.6s-0.2,0.4-0.2,0.7   c0,0.2-0.1,0.5-0.1,0.7c0,0.2,0,0.5,0.1,0.7c0,0.2,0.1,0.5,0.2,0.7s0.2,0.4,0.3,0.6c0.1,0.2,0.3,0.4,0.4,0.5c0.7,0.7,1.6,1,2.5,1   c0.2,0,0.5,0,0.7-0.1c0.2,0,0.5-0.1,0.7-0.2s0.4-0.2,0.6-0.3c0.2-0.1,0.4-0.3,0.5-0.4c0.2-0.2,0.3-0.3,0.4-0.5   c0.1-0.2,0.2-0.4,0.3-0.6s0.2-0.4,0.2-0.7c0-0.2,0.1-0.5,0.1-0.7c0-0.2,0-0.5-0.1-0.7C53.4,59.1,53.3,58.9,53.2,58.7z"></path><path d="M59.3,56.6c-0.2,0-0.4,0.1-0.7,0.2s-0.4,0.2-0.6,0.3c-0.2,0.1-0.4,0.3-0.5,0.4c-0.6,0.6-1,1.5-1,2.5s0.4,1.8,1,2.5   c0.6,0.7,1.5,1,2.5,1s1.8-0.4,2.5-1c0.7-0.7,1-1.5,1-2.5s-0.4-1.8-1-2.5C61.7,56.7,60.5,56.3,59.3,56.6z"></path><path d="M73.2,58.7c-0.1-0.2-0.2-0.4-0.3-0.6c-0.1-0.2-0.3-0.4-0.4-0.5c-1.3-1.3-3.6-1.3-5,0c-0.6,0.6-1,1.5-1,2.5s0.4,1.8,1,2.5   c0.6,0.7,1.5,1,2.5,1s1.8-0.4,2.5-1c0.7-0.7,1-1.5,1-2.5c0-0.2,0-0.5-0.1-0.7C73.4,59.1,73.3,58.9,73.2,58.7z"></path><path d="M27.5,67.5c-0.2,0.2-0.3,0.3-0.4,0.5c-0.1,0.2-0.2,0.4-0.3,0.6c-0.1,0.2-0.2,0.4-0.2,0.7c0,0.2-0.1,0.5-0.1,0.7   c0,0.9,0.4,1.8,1,2.5c0.7,0.7,1.6,1,2.5,1s1.8-0.4,2.5-1c0.7-0.7,1-1.5,1-2.5s-0.4-1.8-1-2.5C31.2,66.2,28.8,66.2,27.5,67.5z"></path><path d="M39.3,66.6c-0.2,0-0.4,0.1-0.7,0.2s-0.4,0.2-0.6,0.3c-0.2,0.1-0.4,0.3-0.5,0.4c-0.6,0.6-1,1.5-1,2.5c0,0.2,0,0.5,0.1,0.7   c0,0.2,0.1,0.5,0.2,0.7c0.1,0.2,0.2,0.4,0.3,0.6c0.1,0.2,0.3,0.4,0.4,0.5c0.2,0.2,0.3,0.3,0.5,0.4c0.2,0.1,0.4,0.2,0.6,0.3   s0.4,0.2,0.7,0.2c0.2,0,0.5,0.1,0.7,0.1c0.9,0,1.8-0.4,2.5-1c0.2-0.2,0.3-0.3,0.4-0.5c0.1-0.2,0.2-0.4,0.3-0.6s0.2-0.4,0.2-0.7   c0-0.2,0.1-0.5,0.1-0.7c0-0.9-0.4-1.8-1-2.5C41.7,66.7,40.5,66.3,39.3,66.6z"></path><path d="M53.2,68.7c-0.1-0.2-0.2-0.4-0.3-0.6c-0.1-0.2-0.3-0.4-0.4-0.5c-0.2-0.2-0.3-0.3-0.5-0.4c-0.2-0.1-0.4-0.2-0.6-0.3   c-0.2-0.1-0.4-0.2-0.7-0.2c-1.1-0.2-2.3,0.1-3.2,1c-0.2,0.2-0.3,0.3-0.4,0.5c-0.1,0.2-0.2,0.4-0.3,0.6s-0.2,0.4-0.2,0.7   c0,0.2-0.1,0.5-0.1,0.7c0,0.2,0,0.5,0.1,0.7c0,0.2,0.1,0.5,0.2,0.7s0.2,0.4,0.3,0.6c0.1,0.2,0.3,0.4,0.4,0.5c0.7,0.7,1.6,1,2.5,1   c0.2,0,0.5,0,0.7-0.1c0.2,0,0.5-0.1,0.7-0.2s0.4-0.2,0.6-0.3c0.2-0.1,0.4-0.3,0.5-0.4c0.7-0.7,1-1.6,1-2.5c0-0.2,0-0.5-0.1-0.7   C53.4,69.1,53.3,68.9,53.2,68.7z"></path><path d="M59.3,66.6c-0.2,0-0.4,0.1-0.7,0.2c-0.2,0.1-0.4,0.2-0.6,0.3c-0.2,0.1-0.4,0.3-0.5,0.4c-0.6,0.6-1,1.5-1,2.5   c0,0.2,0,0.5,0.1,0.7c0,0.2,0.1,0.5,0.2,0.7c0.1,0.2,0.2,0.4,0.3,0.6c0.1,0.2,0.3,0.4,0.4,0.5c0.6,0.7,1.5,1,2.5,1s1.8-0.4,2.5-1   c0.2-0.2,0.3-0.3,0.4-0.5c0.1-0.2,0.2-0.4,0.3-0.6s0.2-0.4,0.2-0.7c0-0.2,0.1-0.5,0.1-0.7c0-0.9-0.4-1.8-1-2.5   C61.7,66.7,60.5,66.3,59.3,66.6z"></path>
  </symbol>
  <symbol id="phone" viewBox="0 0 32 32">
    <path d="M28.49,23.31,25,19.81a3,3,0,0,0-3.44-.56c-2,.93-4.68-.49-6.49-2.3s-3.23-4.52-2.3-6.49A3,3,0,0,0,12.19,7L8.69,3.51a3.09,3.09,0,0,0-4.25,0,9,9,0,0,0,0,12.73L15.76,27.56a9,9,0,0,0,12.73,0,3,3,0,0,0,0-4.25Zm-1.42,2.83a7,7,0,0,1-9.9,0L5.86,14.83a7,7,0,0,1,0-9.9,1,1,0,0,1,1.41,0l3.51,3.5A1,1,0,0,1,11,9.61c-1.19,2.5-.13,5.93,2.69,8.75s6.25,3.88,8.75,2.69a1.05,1.05,0,0,1,1.18.17l3.5,3.51a1,1,0,0,1,0,1.41Z"></path>
  </symbol>
  <symbol id="email2" viewBox="0 0 24 24">
    <path d="M22.868,10.282A11,11,0,1,0,12,23a11.073,11.073,0,0,0,5.388-1.407,1,1,0,1,0-.976-1.746A9,9,0,0,1,5.98,5.311a8.926,8.926,0,0,1,6.992-2.26A9,9,0,0,1,20.554,14.8,1.809,1.809,0,0,1,18.831,16,1.833,1.833,0,0,1,17,14.169V8a1,1,0,0,0-2,0v.026A4.948,4.948,0,0,0,12,7a5,5,0,1,0,3.326,8.705,3.833,3.833,0,0,0,3.5,2.3,3.783,3.783,0,0,0,3.624-2.576A11.011,11.011,0,0,0,22.868,10.282ZM12,15a3,3,0,1,1,3-3A3,3,0,0,1,12,15Z"></path>
  </symbol>
  <symbol id="email3" viewBox="0 0 64 64">
    <path d="M56.783,64H7.22c-3.98,0-7.218-3.238-7.218-7.219V7.219C0.002,3.239,3.24,0,7.22,0h49.563c3.98,0,7.219,3.238,7.219,7.218  v49.563C64.002,60.762,60.764,64,56.783,64z M7.22,3C4.894,3,3.002,4.893,3.002,7.219v49.562C3.002,59.107,4.894,61,7.22,61h49.563  c2.326,0,4.219-1.893,4.219-4.219V7.219C61.002,4.893,59.109,3,56.783,3H7.22z"></path><path d="M38.179,32.511c-0.223,0.891-0.33,1.618-0.322,2.182c0.007,0.564,0.093,1.011,0.261,1.337  c0.166,0.326,0.403,0.553,0.709,0.677c0.306,0.127,0.654,0.188,1.044,0.188c0.584,0,1.137-0.184,1.66-0.553  c0.521-0.369,0.977-0.888,1.366-1.557c0.391-0.667,0.7-1.461,0.93-2.379s0.345-1.921,0.345-3.005c0-1.81-0.282-3.403-0.846-4.781  c-0.563-1.377-1.354-2.529-2.37-3.454c-1.015-0.926-2.222-1.622-3.622-2.088c-1.397-0.467-2.932-0.7-4.603-0.7  c-1.837,0-3.535,0.346-5.093,1.034c-1.56,0.688-2.913,1.632-4.06,2.828c-1.148,1.197-2.047,2.609-2.693,4.238  c-0.647,1.628-0.971,3.382-0.971,5.26c0,2.283,0.354,4.291,1.064,6.023c0.71,1.733,1.685,3.181,2.922,4.343  c1.239,1.162,2.696,2.034,4.374,2.618c1.677,0.585,3.49,0.877,5.437,0.877c1.071,0,2.075-0.06,3.007-0.177  c0.933-0.118,1.789-0.278,2.568-0.48c0.778-0.201,1.487-0.431,2.129-0.688c0.64-0.258,1.211-0.532,1.712-0.824  c0.361-0.209,0.681-0.272,0.96-0.188c0.278,0.084,0.479,0.292,0.605,0.625l0.71,1.86c-1.448,0.944-3.138,1.717-5.072,2.316  c-1.935,0.599-4.141,0.897-6.619,0.897c-2.519,0-4.85-0.396-6.992-1.189c-2.144-0.795-3.998-1.932-5.563-3.413  c-1.566-1.483-2.791-3.289-3.675-5.418c-0.883-2.13-1.325-4.522-1.325-7.182c0-1.488,0.191-2.936,0.574-4.342  c0.383-1.405,0.929-2.724,1.639-3.956c0.71-1.231,1.565-2.362,2.568-3.393c1.002-1.029,2.115-1.912,3.34-2.65  c1.224-0.738,2.55-1.312,3.977-1.723c1.427-0.41,2.919-0.615,4.478-0.615c1.977,0,3.873,0.33,5.688,0.991s3.424,1.607,4.823,2.839  c1.398,1.231,2.515,2.735,3.35,4.51s1.253,3.775,1.253,6.002c0,1.488-0.219,2.884-0.658,4.185c-0.438,1.302-1.05,2.432-1.837,3.393  c-0.786,0.96-1.712,1.715-2.776,2.265c-1.064,0.551-2.223,0.825-3.476,0.825c-0.96,0-1.81-0.223-2.546-0.669  c-0.738-0.443-1.246-1.162-1.524-2.149c-0.822,1.001-1.691,1.72-2.609,2.149c-0.919,0.433-1.914,0.648-2.986,0.648  c-0.876,0-1.639-0.154-2.285-0.46c-0.648-0.306-1.19-0.728-1.629-1.262c-0.438-0.537-0.766-1.171-0.98-1.9  c-0.216-0.731-0.324-1.527-0.324-2.391c0-0.794,0.101-1.598,0.303-2.411c0.201-0.814,0.504-1.6,0.908-2.359  c0.403-0.758,0.908-1.468,1.513-2.129c0.606-0.661,1.315-1.238,2.129-1.732c0.814-0.494,1.734-0.884,2.756-1.169  c1.023-0.285,2.147-0.429,3.373-0.429c1.085,0,2.01,0.084,2.775,0.251c0.765,0.167,1.503,0.403,2.212,0.71L38.179,32.511z   M35.736,27.167c-0.445-0.083-0.904-0.125-1.377-0.125c-0.863,0-1.67,0.188-2.422,0.563s-1.402,0.884-1.953,1.523  c-0.549,0.641-0.984,1.375-1.305,2.202c-0.32,0.829-0.48,1.688-0.48,2.578c0,0.893,0.191,1.583,0.574,2.077  c0.383,0.496,0.943,0.743,1.681,0.743c0.361,0,0.728-0.057,1.097-0.168c0.368-0.111,0.72-0.311,1.054-0.596  c0.333-0.285,0.641-0.664,0.918-1.137c0.278-0.474,0.508-1.065,0.689-1.775L35.736,27.167z"></path>
  </symbol>
  <symbol id="email4" viewBox="0 0 24 24">
    <path d="M5,5H18C19.66,5 21,6.34 21,8V17C21,18.66 19.66,20 18,20H5C3.34,20 2,18.66 2,17V8C2,6.34 3.34,5 5,5M5,6C4.5,6 4.06,6.17 3.72,6.47L11.5,11.5L19.28,6.47C18.94,6.17 18.5,6 18,6H5M11.5,12.71L3.13,7.28C3.05,7.5 3,7.75 3,8V17C3,18.1 3.9,19 5,19H18C19.1,19 20,18.1 20,17V8C20,7.75 19.95,7.5 19.87,7.28L11.5,12.71Z"></path>
  </symbol>
  <symbol id="email" viewBox="0 0 100 100">
    <path d="M93.55,25.51a8,8,0,0,0-8-8H14.45a8,8,0,0,0-8,8v49a8,8,0,0,0,8,8h71.1a8,8,0,0,0,8-8Zm-79.1-4h71.1a4,4,0,0,1,.63.06L52.89,56.36a4,4,0,0,1-5.77,0L13.82,21.57A4,4,0,0,1,14.45,21.51Zm-4,4a4,4,0,0,1,.27-1.4l21,21.95L10.45,72.2Zm75.1,53H14.45a4,4,0,0,1-2.92-1.28L34.51,49l9.72,10.16a8,8,0,0,0,11.55,0l9.08-9.49,23.6,27.59A4,4,0,0,1,85.55,78.49Zm4-6.13L67.63,46.74,89.28,24.11a4,4,0,0,1,.27,1.4Z"></path>  </symbol>
</svg>
