<svg xmlns="http://www.w3.org/2000/svg" style="display: none;">
  <symbol id="task" viewBox="0 0 24 24">
    <path d="M23.7,3.7l-1.4-1.4l-2.9,2.9C17.5,3.3,14.9,2,12,2C6.5,2,2,6.5,2,12s4.5,10,10,10s10-4.5,10-10c0-1.9-0.5-3.6-1.4-5.1 L23.7,3.7z M20,12c0,4.4-3.6,8-8,8s-8-3.6-8-8s3.6-8,8-8c2.4,0,4.5,1,5.9,2.7L12,12.6L8.7,9.3l-1.4,1.4l3.3,3.3l0.7,0.7 c0.4,0.4,1,0.4,1.4,0l0.7-0.7l5.7-5.7C19.7,9.4,20,10.7,20,12z"/>
  </symbol>
  <symbol id="arrowDown" viewBox="0 0 16 16">
    <path fill-rule="evenodd" clip-rule="evenodd" d="M3.75736 5.75736L7.29289 9.29289L8 10L8.70711 9.29289L12.2426 5.75736L11.5355 5.05025L8 8.58579L4.46447 5.05025L3.75736 5.75736Z"/>
  </symbol>
</svg>
