<svg xmlns="http://www.w3.org/2000/svg" style="display: none;">
  <symbol id="recruiting" viewBox="0 0 24 24">
    <path d="M14.9,0c-5,0-9.1,4.1-9.1,9.1c0,2.3,0.8,4.3,2.2,5.9l-1,1c-0.8-0.4-1.8-0.2-2.4,0.4L0,21l3,3l4.6-4.6 C8.2,18.8,8.3,17.8,8,17l1-1c1.6,1.4,3.7,2.2,5.9,2.2c5,0,9.1-4.1,9.1-9.1S19.9,0,14.9,0L14.9,0z M6.5,18.4L3,22l-1-1l3.6-3.6 c0.3-0.3,0.7-0.3,1,0C6.8,17.7,6.8,18.2,6.5,18.4z M14.9,16.9c-4.3,0-7.7-3.5-7.7-7.7s3.5-7.7,7.7-7.7s7.7,3.5,7.7,7.7 S19.1,16.9,14.9,16.9z"/>
    <path d="M17.7,5.6c0-1.6-1.3-2.8-2.8-2.8S12,4.1,12,5.6s1.3,2.8,2.8,2.8S17.7,7.2,17.7,5.6z M14.9,7c-0.8,0-1.4-0.6-1.4-1.4 s0.6-1.4,1.4-1.4c0.8,0,1.4,0.6,1.4,1.4S15.6,7,14.9,7z"/>
    <path d="M14.9,8.4c-2.7,0-4.9,2.2-4.9,4.9v0.7h9.8v-0.7C19.8,10.6,17.6,8.4,14.9,8.4z M11.4,12.7c0.3-1.6,1.7-2.8,3.4-2.8 s3.1,1.2,3.4,2.8H11.4z"/>
  </symbol>
</svg>
