<svg xmlns="http://www.w3.org/2000/svg" style="display: none;">
  <symbol id="perspective" viewBox="0 0 32 32">
    <path d="M5,16V28a1,1,0,0,1-2,0V16A13,13,0,0,1,21.42,4.18,1,1,0,1,1,20.58,6,11,11,0,0,0,5,16ZM25.75,7.4a1,1,0,0,0-1.41-.09,1,1,0,0,0-.09,1.41A11,11,0,0,1,16,27H9a1,1,0,0,0,0,2h7A13,13,0,0,0,25.75,7.4ZM8,16a2,2,0,1,0,2-2A2,2,0,0,0,8,16Zm6,0a2,2,0,1,0,2-2A2,2,0,0,0,14,16Zm6,0a2,2,0,1,0,2-2A2,2,0,0,0,20,16Z"></path>
  </symbol>
  <symbol id="add" viewBox="0 0 16 16">
    <path fill-rule="evenodd" clip-rule="evenodd" d="M9 4H7V7H4V9H7V12H9V9H12V7H9V4Z"/>
  </symbol>

  <symbol id="resize" viewBox="0 0 16 16">
    <polygon points="7.7,9.7 9.7,7.7 12,9.9 12,4 6,4 8.3,6.3 6.3,8.3 4,6 4,12 10,12 "/>
  </symbol>
  <symbol id="close" viewBox="0 0 16 16">
    <path fill-rule="evenodd" clip-rule="evenodd" d="M5.87928 4.46447L4.46507 5.87868L6.58639 8L4.46507 10.1213L5.87928 11.5355L8.0006 9.41421L10.1219 11.5355L11.5361 10.1213L9.41482 8L11.5361 5.87868L10.1219 4.46447L8.0006 6.58579L5.87928 4.46447Z"/>
  </symbol>
  <symbol id="finder" viewBox="0 0 16 16">
    <path d="M15.9,15.4l-4.1-4.1c1.1-1.2,1.7-2.8,1.7-4.5c0-3.8-3-6.8-6.8-6.8S0,3,0,6.8s3,6.8,6.8,6.8c1.7,0,3.2-0.6,4.5-1.7l4.1,4.1 c0.1,0.1,0.2,0.1,0.3,0.1c0.1,0,0.2,0,0.3-0.1C16,15.8,16,15.6,15.9,15.4z M0.9,6.9C0.9,3.7,3.5,1,6.8,1s5.9,2.7,5.9,5.9 c0,1.6-0.6,3.1-1.7,4.2l0,0l0,0c-1.1,1.1-2.6,1.7-4.2,1.7C3.4,12.7,0.9,10.1,0.9,6.9z"/>
  </symbol>
  <symbol id="lock" viewBox="0 0 16 16">
    <path d="M13.5,7h-0.8V4.8C12.8,2.1,10.6,0,8,0S3.2,2.1,3.2,4.8V7H2.5C1.7,7,1,7.7,1,8.5v6C1,15.3,1.7,16,2.5,16h11 c0.8,0,1.5-0.7,1.5-1.5v-6C15,7.7,14.3,7,13.5,7z M10.2,7H5.8V4.8c0-1.2,1-2.2,2.2-2.2s2.2,1,2.2,2.2V7z"/>
  </symbol>
  <symbol id="sharp" viewBox="0 0 16 16">
    <path d="M13.7,4l-0.1,0.7l-0.1,0.6c0,0.2-0.1,0.4-0.4,0.4c-0.5,0-0.8,0-1,0c-0.2,0-0.4,0-0.8,0c-0.2,0-0.4,0-0.4,0.1 c-0.1,0-0.1,0.2-0.1,0.3l-0.5,4c0,0.2,0.2,0.2,0.5,0.2h1.5c0.4,0,0.5,0.1,0.5,0.2c0,0.1,0,0.2-0.1,0.4l-0.2,1.2 c0,0.2-0.1,0.3-0.1,0.3c0,0-0.1,0-0.3,0l-1.7,0c-0.3,0-0.5,0.1-0.6,0.3l-0.2,2.7c0,0.1,0,0.2,0,0.3c0,0.1-0.1,0.2-0.2,0.2 c-0.1,0-0.4,0-0.9,0c-0.4,0-0.6-0.1-0.5-0.4l0.3-2.6c0-0.2,0-0.3,0-0.3c0-0.2-0.1-0.3-0.3-0.3H6.9c-0.3,0-0.5,0.1-0.6,0.4L6,15.6 c0,0.2-0.1,0.3-0.2,0.3c-0.1,0-0.5,0-1.1,0c-0.3,0-0.4-0.1-0.4-0.4l0.4-2.7c0-0.1,0-0.2,0-0.3c0-0.1-0.1-0.2-0.4-0.2l-1.9,0 c-0.1,0-0.2-0.1-0.2-0.2c0-0.1,0-0.2,0-0.3l0-0.6l0.1-0.7c0-0.2,0-0.3,0.1-0.3c0-0.1,0.2-0.1,0.4-0.1c0.6,0,1.1,0,1.3,0 c0.2,0,0.4,0,0.6,0.1c0.2,0,0.3,0,0.3-0.1c0,0,0.1-0.2,0.1-0.6L5.6,6c0-0.1,0-0.2,0-0.3c0-0.1-0.1-0.1-0.3-0.1H3.4 c-0.1,0-0.2,0-0.2-0.1c0,0,0-0.2,0-0.4l0-0.5l0.1-0.8c0-0.3,0.1-0.4,0.4-0.4c0.3,0,0.6,0,0.9,0c0.3,0,0.6,0,1,0c0.1,0,0.2,0,0.3,0 C5.9,3.5,6,3.3,6,3l0.2-2.6C6.2,0.1,6.3,0,6.6,0h0.9c0.1,0,0.2,0,0.3,0c0,0,0.1,0.1,0,0.3L7.4,3.2c0,0.3,0,0.4,0.2,0.4 c0.1,0,0.3,0,0.4,0h1.3c0.2,0,0.4-0.1,0.4-0.4l0.2-2.7C9.9,0.1,10,0,10.3,0h0.7c0.4,0,0.6,0.1,0.5,0.3l-0.5,2.6c0,0.2,0,0.3,0,0.3 c0,0.2,0.1,0.3,0.4,0.3c0.1,0,0.3,0,0.7,0c0.4,0,0.8,0,1.1,0c0.3,0,0.4,0.1,0.4,0.3C13.7,3.9,13.7,4,13.7,4z M9.4,6.1 c0-0.3,0-0.5-0.3-0.5H7.5c-0.2,0-0.4,0.2-0.4,0.5L6.6,9.9c0,0.3,0.1,0.4,0.3,0.4h1.5c0.4,0,0.6-0.1,0.6-0.2L9.4,6.1z"/>
  </symbol>
  <symbol id="burger" viewBox="0 0 16 16">
    <path d="M13,9H3C2.4,9,2,8.6,2,8v0c0-0.6,0.4-1,1-1h10c0.6,0,1,0.4,1,1v0C14,8.6,13.6,9,13,9z"/>
    <path d="M13,5H3C2.4,5,2,4.6,2,4v0c0-0.6,0.4-1,1-1h10c0.6,0,1,0.4,1,1v0C14,4.6,13.6,5,13,5z"/>
    <path d="M13,13H3c-0.6,0-1-0.4-1-1v0c0-0.6,0.4-1,1-1h10c0.6,0,1,0.4,1,1v0C14,12.6,13.6,13,13,13z"/>
  </symbol>
  <symbol id="arrowDown" viewBox="0 0 12 12">
    <polygon points="6,9.3 0.6,3.9 1.4,3.1 6,7.7 10.6,3.1 11.4,3.9"/>
  </symbol>
  <symbol id="arrowRight" viewBox="0 0 12 12">
    <polygon points="3.9,11.4 3.1,10.6 7.7,6 3.1,1.4 3.9,0.6 9.3,6"/>
  </symbol>
</svg>
