<svg xmlns="http://www.w3.org/2000/svg" style="display: none;">
  <symbol id="perspective" viewBox="0 0 32 32">
    <path d="M5,16V28a1,1,0,0,1-2,0V16A13,13,0,0,1,21.42,4.18,1,1,0,1,1,20.58,6,11,11,0,0,0,5,16ZM25.75,7.4a1,1,0,0,0-1.41-.09,1,1,0,0,0-.09,1.41A11,11,0,0,1,16,27H9a1,1,0,0,0,0,2h7A13,13,0,0,0,25.75,7.4ZM8,16a2,2,0,1,0,2-2A2,2,0,0,0,8,16Zm6,0a2,2,0,1,0,2-2A2,2,0,0,0,14,16Zm6,0a2,2,0,1,0,2-2A2,2,0,0,0,20,16Z"></path>
  </symbol>
  <symbol id="add" viewBox="0 0 511.99998 511.99998">
    <g transform="translate(-88.749289,-131.31133)"><path style="opacity:1;fill:#000000;fill-opacity:1;fill-rule:nonzero;stroke:none;stroke-width:15.95363998;stroke-linecap:round;stroke-linejoin:round;stroke-miterlimit:4;stroke-dasharray:none;stroke-dashoffset:0;stroke-opacity:1" d="m 344.74928,131.31132 a 255.99973,255.99973 0 0 0 -256,256 255.99973,255.99973 0 0 0 256,256 255.99973,255.99973 0 0 0 256,-256 255.99973,255.99973 0 0 0 -256,-256 z m -20.37509,123.15973 40.75018,0 c 6.67908,0 12.05733,5.37625 12.05733,12.05532 l 0,88.35253 88.35253,0 c 6.67908,0 12.05532,5.37826 12.05532,12.05733 l 0,40.75018 c 0,6.67908 -5.37624,12.05733 -12.05532,12.05733 l -88.35253,0 0,88.35253 c 0,6.67907 -5.37825,12.05532 -12.05733,12.05532 l -40.75018,0 c -6.67907,0 -12.05733,-5.37625 -12.05733,-12.05532 l 0,-88.35253 -88.35253,0 c -6.67907,0 -12.05532,-5.37825 -12.05532,-12.05733 l 0,-40.75018 c 0,-6.67907 5.37625,-12.05733 12.05532,-12.05733 l 88.35253,0 0,-88.35253 c 0,-6.67907 5.37826,-12.05532 12.05733,-12.05532 z"></path></g>
  </symbol>
</svg>
