<svg xmlns="http://www.w3.org/2000/svg" style="display: none;">
  <symbol id="perspective" viewBox="0 0 32 32">
    <path d="M5,16V28a1,1,0,0,1-2,0V16A13,13,0,0,1,21.42,4.18,1,1,0,1,1,20.58,6,11,11,0,0,0,5,16ZM25.75,7.4a1,1,0,0,0-1.41-.09,1,1,0,0,0-.09,1.41A11,11,0,0,1,16,27H9a1,1,0,0,0,0,2h7A13,13,0,0,0,25.75,7.4ZM8,16a2,2,0,1,0,2-2A2,2,0,0,0,8,16Zm6,0a2,2,0,1,0,2-2A2,2,0,0,0,14,16Zm6,0a2,2,0,1,0,2-2A2,2,0,0,0,20,16Z"></path>
  </symbol>
  <symbol id="add" viewBox="0 0 511.99998 511.99998">
    <g transform="translate(-88.749289,-131.31133)"><path style="opacity:1;fill:#000000;fill-opacity:1;fill-rule:nonzero;stroke:none;stroke-width:15.95363998;stroke-linecap:round;stroke-linejoin:round;stroke-miterlimit:4;stroke-dasharray:none;stroke-dashoffset:0;stroke-opacity:1" d="m 344.74928,131.31132 a 255.99973,255.99973 0 0 0 -256,256 255.99973,255.99973 0 0 0 256,256 255.99973,255.99973 0 0 0 256,-256 255.99973,255.99973 0 0 0 -256,-256 z m -20.37509,123.15973 40.75018,0 c 6.67908,0 12.05733,5.37625 12.05733,12.05532 l 0,88.35253 88.35253,0 c 6.67908,0 12.05532,5.37826 12.05532,12.05733 l 0,40.75018 c 0,6.67908 -5.37624,12.05733 -12.05532,12.05733 l -88.35253,0 0,88.35253 c 0,6.67907 -5.37825,12.05532 -12.05733,12.05532 l -40.75018,0 c -6.67907,0 -12.05733,-5.37625 -12.05733,-12.05532 l 0,-88.35253 -88.35253,0 c -6.67907,0 -12.05532,-5.37825 -12.05532,-12.05733 l 0,-40.75018 c 0,-6.67907 5.37625,-12.05733 12.05532,-12.05733 l 88.35253,0 0,-88.35253 c 0,-6.67907 5.37826,-12.05532 12.05733,-12.05532 z"></path></g>
  </symbol>
  <symbol id="pages" viewBox="0 0 24 24">
    <path d="M20.2,8.8C19.3,7.9,18.4,7,17.3,7H14V6.6c0-1.1-0.8-1.8-1.8-2.8S10.4,2,9.3,2H5C3.3,2,2,3.3,2,5v10c0,1.7,1.3,3,3,3h5v2 c0,1.7,1.3,3,3,3h6c1.7,0,3-1.3,3-3v-8.4C22,10.5,21.2,9.8,20.2,8.8z M5,16c-0.6,0-1-0.4-1-1V5c0-0.6,0.4-1,1-1h4.3 c0.5,0,0.9,0.6,1.5,1.2c0.6,0.6,1.2,1,1.2,1.6v0.4c-1.2,0.4-2,1.5-2,2.8v6H5z M20,20c0,0.6-0.4,1-1,1h-6c-0.6,0-1-0.4-1-1V10 c0-0.6,0.4-1,1-1h4.3c0.5,0,0.9,0.6,1.5,1.2c0.6,0.6,1.2,1,1.2,1.6V20z"/>
  </symbol>

  <symbol id="resize" viewBox="0 0 16 16">
    <circle fill="var(--theme-bg-dark-color)" cx="8" cy="8" r="8"/>
    <polygon fill="var(--white-color)" points="7.7,9.7 9.7,7.7 12,9.9 12,4 6,4 8.3,6.3 6.3,8.3 4,6 4,12 10,12 "/>
  </symbol>
  <symbol id="close" viewBox="0 0 16 16">
    <circle fill="var(--theme-bg-dark-color)" cx="8" cy="8" r="8"/>
    <path fill="var(--white-color)" fill-rule="evenodd" clip-rule="evenodd" d="M5.87928 4.46447L4.46507 5.87868L6.58639 8L4.46507 10.1213L5.87928 11.5355L8.0006 9.41421L10.1219 11.5355L11.5361 10.1213L9.41482 8L11.5361 5.87868L10.1219 4.46447L8.0006 6.58579L5.87928 4.46447Z"/>
  </symbol>
  <symbol id="finder" viewBox="0 0 16 16">
    <path fill="var(--theme-content-color)" fill-rule="evenodd" clip-rule="evenodd" d="M6.5 12C9.53757 12 12 9.53757 12 6.5C12 3.46243 9.53757 1 6.5 1C3.46243 1 1 3.46243 1 6.5C1 9.53757 3.46243 12 6.5 12ZM6.5 10C8.433 10 10 8.433 10 6.5C10 4.567 8.433 3 6.5 3C4.567 3 3 4.567 3 6.5C3 8.433 4.567 10 6.5 10Z"/>
    <line stroke="var(--theme-content-color)" x1="9.70711" y1="9.29289" x2="14.7071" y2="14.2929" stroke-width="2"/>
  </symbol>
</svg>
