<svg xmlns="http://www.w3.org/2000/svg" style="display: none;">
  <symbol id="phone" viewBox="0 0 100 100">
<g>
	<path d="M99.5,74.1c-1.9-5.4-8.2-8.4-17-11.2c-7-2.3-14.7-0.4-19.9,4.8l-1.6,1.6h0c-1.7,0-7.8-0.9-18.6-11.6
		c-10.9-10.9-11.7-17-11.7-18.6l1.6-1.6c5.2-5.2,7.1-12.9,4.8-19.9c-2.8-8.8-5.8-15.1-11.2-17C22.5-0.7,18.6,0.2,14.2,3
		C6.2,8,1.1,16.4,0.2,25.7C-1.4,41,7.4,59.9,23.8,76.2c15.1,15.1,32.4,23.8,47,23.8c1.2,0,2.4-0.1,3.6-0.2c9.3-0.9,17.7-6.1,22.6-14
		C99.8,81.5,100.7,77.5,99.5,74.1z M93.3,83.4c-4.2,6.9-11.4,11.3-19.4,12c-14.1,1.4-31.6-6.9-47-22.3s-23.8-33-22.3-47
		c0.7-8,5.2-15.2,12-19.4c3.2-2.1,5.8-2.8,7.9-2c3.9,1.4,6.5,8,8.5,14.2c1.8,5.5,0.3,11.5-3.8,15.5L27,36.5
		c-0.3,0.3-0.4,0.6-0.5,0.9c-0.3,0.8-2,8.6,12.7,23.3s22.5,13,23.3,12.7c0.3-0.1,0.7-0.3,0.9-0.5l2.1-2.1c4.1-4.1,10.1-5.5,15.5-3.8
		c6.2,2,12.8,4.6,14.2,8.5C96.1,77.6,95.4,80.2,93.3,83.4L93.3,83.4z"/>
</g>
  </symbol>
  <symbol id="email" viewBox="0 0 100 100">
<g>
	<path d="M46.5,100c9.4,0,16.9-1.5,23.9-4.9c0.9-0.4,1.2-1.5,0.8-2.4c-0.5-0.9-1.5-1.2-2.4-0.8c-6.5,3.1-13.5,4.5-22.3,4.5
		C23.2,96.5,6.3,79,6.3,55c0-29.3,21-51.5,48.8-51.5c22.7,0,38.6,15.7,38.6,38.3C93.7,62.3,82.2,73,70.8,73c-2.5,0-4.6-0.9-6.1-2.4
		c-1.7-1.8-2.5-4.5-2.4-7.8l5.6-31.9c0.5-2.6-1.1-5.5-3.5-6.4c-3.2-1.2-6.3-1.8-10.4-1.8c-21,0-30.3,17.4-30.3,34.6
		c0,12.6,8.4,19.2,16.7,19.2c7.5,0,13.9-3.1,18.8-9c0.5,2.1,1.5,4,2.9,5.5c2.2,2.3,5.2,3.5,8.7,3.5c13.1,0,26.4-11.9,26.4-34.8
		C97.2,17.2,79.9,0,55.1,0C25.3,0,2.8,23.6,2.8,55C2.8,81.1,21.2,100,46.5,100z M58.9,62C54.4,69.3,48.2,73,40.4,73
		c-7.8,0-13.2-6.5-13.2-15.7c0-14.3,7-31.1,26.8-31.1c4.5,0,7.1,0.8,9.1,1.5c0.8,0.3,1.5,1.5,1.3,2.5L58.9,62z"/>
</g>
  </symbol>
  <symbol id="address" viewBox="0 0 100 100">
<g transform="translate(0,-952.36218)">
	<path d="M50,952.4c-18.8,0-34.1,15.3-34.1,34.1c0,3.4,0.5,6.6,1.4,9.7c0.9,3.1,3.2,7.7,6.3,13.4s6.7,12.2,10.4,18.4
		c7.3,12.4,14.1,23.4,14.1,23.4c0.7,1.1,2.1,1.4,3.1,0.7c0.3-0.2,0.5-0.4,0.7-0.7c0,0,6.9-11.1,14.1-23.4
		c3.6-6.2,7.3-12.7,10.4-18.4c3-5.7,5.3-10.3,6.3-13.4c0.9-3.1,1.4-6.3,1.4-9.7C84.1,967.6,68.8,952.4,50,952.4z M50,956.9
		c16.3,0,29.5,13.2,29.5,29.5c0,2.9-0.4,5.7-1.2,8.4c-0.6,2.2-2.9,6.9-5.9,12.5c-3,5.6-6.7,12.1-10.3,18.2
		c-6.2,10.6-10.6,17.7-12.1,20.1c-1.5-2.4-5.9-9.5-12.1-20.1c-3.6-6.2-7.3-12.7-10.3-18.2c-3-5.6-5.3-10.3-5.9-12.5
		c-0.8-2.7-1.2-5.5-1.2-8.4C20.5,970.1,33.7,956.9,50,956.9z M50,970.5c-8.8,0-15.9,7.2-15.9,15.9c0,8.8,7.2,15.9,15.9,15.9
		c8.8,0,15.9-7.2,15.9-15.9C65.9,977.7,58.8,970.5,50,970.5z M50,975.1c6.3,0,11.4,5.1,11.4,11.4c0,6.3-5.1,11.4-11.4,11.4
		c-6.3,0-11.4-5.1-11.4-11.4C38.6,980.1,43.7,975.1,50,975.1z"/>
</g>
  </symbol>
  <symbol id="date" viewBox="0 0 100 100">
<g>
	<path d="M24.1,46.5h3.6c2,0,3.5-1.6,3.5-3.5v-3.6c0-2-1.6-3.5-3.5-3.5h-3.6c-2,0-3.5,1.6-3.5,3.5V43C20.5,44.9,22.1,46.5,24.1,46.5
		z"/>
	<path d="M48.2,46.5h3.6c2,0,3.5-1.6,3.5-3.5v-3.6c0-2-1.6-3.5-3.5-3.5h-3.6c-2,0-3.5,1.6-3.5,3.5V43C44.6,44.9,46.2,46.5,48.2,46.5
		z"/>
	<path d="M72.3,46.5h3.6c2,0,3.5-1.6,3.5-3.5v-3.6c0-2-1.6-3.5-3.5-3.5h-3.6c-2,0-3.5,1.6-3.5,3.5V43C68.8,44.9,70.3,46.5,72.3,46.5
		z"/>
	<path d="M24.1,64.7h3.6c2,0,3.5-1.6,3.5-3.5v-3.6c0-2-1.6-3.5-3.5-3.5h-3.6c-2,0-3.5,1.6-3.5,3.5v3.6
		C20.5,63.2,22.1,64.7,24.1,64.7z"/>
	<path d="M48.2,64.7h3.6c2,0,3.5-1.6,3.5-3.5v-3.6c0-2-1.6-3.5-3.5-3.5h-3.6c-2,0-3.5,1.6-3.5,3.5v3.6
		C44.6,63.2,46.2,64.7,48.2,64.7z"/>
	<path d="M72.3,64.7h3.6c2,0,3.5-1.6,3.5-3.5v-3.6c0-2-1.6-3.5-3.5-3.5h-3.6c-2,0-3.5,1.6-3.5,3.5v3.6
		C68.8,63.2,70.3,64.7,72.3,64.7z"/>
	<path d="M24.1,83h3.6c2,0,3.5-1.6,3.5-3.5v-3.6c0-2-1.6-3.5-3.5-3.5h-3.6c-2,0-3.5,1.6-3.5,3.5v3.6C20.5,81.4,22.1,83,24.1,83z"/>
	<path d="M48.2,83h3.6c2,0,3.5-1.6,3.5-3.5v-3.6c0-2-1.6-3.5-3.5-3.5h-3.6c-2,0-3.5,1.6-3.5,3.5v3.6C44.6,81.4,46.2,83,48.2,83z"/>
	<path d="M87.5,3.2h-75C5.6,3.2,0,8.8,0,15.7v68.6c0,6.9,5.6,12.5,12.5,12.5h75c6.9,0,12.5-5.6,12.5-12.5V15.7
		C100,8.8,94.4,3.2,87.5,3.2z M96.5,84.3c0,4.9-4,9-9,9h-75c-4.9,0-9-4-9-9V25.5h92.9V84.3z M96.5,22H3.5v-6.3c0-4.9,4-9,8.9-9h75
		c4.9,0,8.9,4,8.9,9L96.5,22L96.5,22z"/>
</g>
  </symbol>
  <symbol id="search" viewBox="0 0 100 100">
<path
fill-rule="evenodd"
clip-rule="evenodd"
d="M11.3,11.3c15-15,39.4-15,54.4,0c15,15,15,39.4,0,54.4c-15,15-39.4,15-54.4,0
C-3.8,50.6-3.8,26.3,11.3,11.3L11.3,11.3z M21.2,21.2c-9.6,9.5-9.6,25,0,34.6c9.5,9.6,25,9.6,34.6,0c9.5-9.5,9.5-25,0-34.6
C46.2,11.6,30.7,11.6,21.2,21.2z"
/>
<path
fill-rule="evenodd"
clip-rule="evenodd"
d="M73.3,63l24.4,24.4c6.8,6.8-3.5,17.2-10.3,10.3L63,73.3C67,70.5,70.5,67,73.3,63z"
/>
  </symbol>
</svg>
