<svg xmlns="http://www.w3.org/2000/svg" style="display: none;">
  <symbol id="chunter" viewBox="0 0 32 32">
    <path d="M5,16V28a1,1,0,0,1-2,0V16A13,13,0,0,1,21.42,4.18,1,1,0,1,1,20.58,6,11,11,0,0,0,5,16ZM25.75,7.4a1,1,0,0,0-1.41-.09,1,1,0,0,0-.09,1.41A11,11,0,0,1,16,27H9a1,1,0,0,0,0,2h7A13,13,0,0,0,25.75,7.4ZM8,16a2,2,0,1,0,2-2A2,2,0,0,0,8,16Zm6,0a2,2,0,1,0,2-2A2,2,0,0,0,14,16Zm6,0a2,2,0,1,0,2-2A2,2,0,0,0,20,16Z"></path>
  </symbol>
  <symbol id="activityView" viewBox="0 0 24 24">
    <path d="M5-111.3c-0.1,0-0.2,0-0.3-0.1c-0.1-0.1-0.2-0.3-0.1-0.5l1.4-4.2c-0.4-0.9-0.7-2-0.7-3c0-2.7,1.5-5.1,3.9-6.3 c1-0.5,2.1-0.7,3.1-0.7l0,0h0.4c3.6,0.2,6.5,3.1,6.7,6.6v0.4c0,1.1-0.3,2.2-0.7,3.2c-1.2,2.4-3.6,3.9-6.3,3.9l0,0c-1,0-2-0.2-3-0.7 l-4.3,1.4C5.1-111.3,5-111.3,5-111.3z M12.4-125.2c-0.9,0-1.9,0.2-2.7,0.7c-2.1,1.1-3.4,3.2-3.4,5.5c0,1,0.2,1.9,0.7,2.8 c0.1,0.1,0.1,0.2,0,0.3l-1.2,3.6l3.6-1.2c0.1,0,0.2,0,0.3,0c0.8,0.4,1.8,0.7,2.7,0.7l0,0c2.3,0,4.5-1.3,5.5-3.4 c0.4-0.9,0.7-1.8,0.7-2.8l0,0v-0.4c-0.2-3.1-2.7-5.6-5.8-5.8H12.4L12.4-125.2z M19.4-119.1L19.4-119.1L19.4-119.1z"/>
  </symbol>
  <symbol id="activityViewOld" viewBox="0 0 24 24">
    <path d="M20.3,12l-3.9-1.9c-0.3-0.2-0.7-0.1-0.9,0.1c-0.2,0.1-0.3,0.2-0.4,0.3l-2.8,3.7L8.9,6.6C8.7,6.1,8.3,5.9,7.8,6 c-0.1,0-0.1,0-0.2,0c0,0,0,0,0,0c0,0,0,0,0,0C7.4,6.2,7.2,6.3,7.1,6.5L3.5,13H0v2h4v0c0.4,0,0.7-0.2,0.9-0.5l2.9-5.3l3.3,7.4 c0,0,0,0.1,0.1,0.1c0,0,0,0,0,0c0.1,0.2,0.4,0.4,0.6,0.5c0,0,0,0,0,0c0.1,0,0.2,0,0.3,0c0,0,0.1,0,0.1,0c0.1,0,0.1,0,0.2,0 c0,0,0,0,0.1,0c0,0,0.1-0.1,0.1-0.1c0.1,0,0.1-0.1,0.2-0.2c0,0,0,0,0,0l3.4-4.5l3.4,1.6c0.1,0.1,0.3,0.1,0.4,0.1v0h4v-2H20.3z"/>
  </symbol>
  <symbol id="chatView" viewBox="0 0 24 24">
    <path d="M5,19.9c-0.1,0-0.2,0-0.3-0.1c-0.1-0.1-0.2-0.3-0.1-0.5L6,15.1c-0.4-0.9-0.7-2-0.7-3c0-2.7,1.5-5.1,3.9-6.3 c1-0.5,2.1-0.7,3.1-0.7c0,0,0,0,0,0h0.4c3.6,0.2,6.5,3.1,6.7,6.6l0,0.4c0,1.1-0.3,2.2-0.7,3.2c-1.2,2.4-3.6,3.9-6.3,3.9c0,0,0,0,0,0 c-1,0-2-0.2-3-0.7l-4.3,1.4C5.1,19.9,5,19.9,5,19.9z M12.4,6c-0.9,0-1.9,0.2-2.7,0.7c-2.1,1.1-3.4,3.2-3.4,5.5c0,1,0.2,1.9,0.7,2.8 c0.1,0.1,0.1,0.2,0,0.3l-1.2,3.6l3.6-1.2c0.1,0,0.2,0,0.3,0c0.8,0.4,1.8,0.7,2.7,0.7c0,0,0,0,0,0c2.3,0,4.5-1.3,5.5-3.4 c0.4-0.9,0.7-1.8,0.7-2.8c0,0,0,0,0,0v-0.4c-0.2-3.1-2.7-5.6-5.8-5.8L12.4,6C12.4,6,12.4,6,12.4,6z M19.4,12.1L19.4,12.1L19.4,12.1z"/>
  </symbol>
  <symbol id="chatViewOld" viewBox="0 0 24 24">
    <path d="M21,7h-5V6c0-1.7-1.3-3-3-3H3C1.3,3,0,4.3,0,6v6c0,1.3,0.8,2.4,2,2.8v3.6L5.5,15H8V16c0,1.7,1.3,3,3,3h7.5l3.5,3.4v-3.6 c1.2-0.4,2-1.5,2-2.8v-6C24,8.4,22.7,7,21,7z M3,13c-0.6,0-1-0.4-1-1V6c0-0.6,0.4-1,1-1h10c0.6,0,1,0.4,1,1V7h-3c-1.7,0-3,1.3-3,3 V13H3z M22,16c0,0.6-0.4,1-1,1H11c-0.6,0-1-0.4-1-1v-6c0-0.6,0.4-1,1-1h10c0.6,0,1,0.4,1,1V16z"/>
  </symbol>
  <symbol id="pagesView" viewBox="0 0 24 24">
    <path d="M17.6,6.7h-8c-1,0-1.7,0.7-1.7,1.6v10c0,1,0.7,1.7,1.7,1.7h8c0.9,0,1.7-0.7,1.7-1.7v-10C19.2,7.4,18.5,6.7,17.6,6.7z M18.6,18.3c0,0.6-0.4,1-1,1h-8c-0.6,0-1-0.4-1-1v-10c0-0.6,0.4-1,1-1h8c0.6,0,1,0.4,1,1V18.3z"/>
    <path d="M6.9,17.3H6.2c-0.6,0-1-0.4-1-1V5.7c0-0.6,0.4-1,1-1h8c0.6,0,1,0.4,1,1c0,0.2,0.1,0.3,0.3,0.3c0.3,0,0.4-0.1,0.4-0.3 c0-1-0.7-1.7-1.7-1.7h-8C5.3,4,4.6,4.7,4.6,5.7v10.7c0,0.9,0.7,1.7,1.7,1.7h0.6c0.2,0,0.3-0.1,0.3-0.3C7.2,17.5,7.1,17.3,6.9,17.3z"/>
    <path d="M16.2,14.7h-5.3c-0.2,0-0.3,0.1-0.3,0.3s0.1,0.3,0.3,0.3h5.3c0.2,0,0.3-0.1,0.3-0.3C16.6,14.8,16.4,14.7,16.2,14.7z"/>
    <path d="M16.2,17.3h-5.3c-0.2,0-0.3,0.1-0.3,0.3c0,0.2,0.1,0.3,0.3,0.3h5.3c0.2,0,0.3-0.1,0.3-0.3C16.6,17.5,16.4,17.3,16.2,17.3z"/>
    <path d="M16.2,12h-5.3c-0.2,0-0.3,0.1-0.3,0.3s0.1,0.3,0.3,0.3h5.3c0.2,0,0.3-0.1,0.3-0.3C16.6,12.1,16.4,12,16.2,12z"/>
    <path d="M16.2,9.3h-5.3c-0.2,0-0.3,0.1-0.3,0.3s0.1,0.3,0.3,0.3h5.3c0.2,0,0.3-0.1,0.3-0.3C16.6,9.5,16.4,9.3,16.2,9.3z"/>
  </symbol>
  <symbol id="pagesViewOld" viewBox="0 0 24 24">
    <path d="M20.2,8.8C19.3,7.9,18.4,7,17.3,7H14V6.6c0-1.1-0.8-1.8-1.8-2.8S10.4,2,9.3,2H5C3.3,2,2,3.3,2,5v10c0,1.7,1.3,3,3,3h5v2 c0,1.7,1.3,3,3,3h6c1.7,0,3-1.3,3-3v-8.4C22,10.5,21.2,9.8,20.2,8.8z M5,16c-0.6,0-1-0.4-1-1V5c0-0.6,0.4-1,1-1h4.3 c0.5,0,0.9,0.6,1.5,1.2c0.6,0.6,1.2,1,1.2,1.6v0.4c-1.2,0.4-2,1.5-2,2.8v6H5z M20,20c0,0.6-0.4,1-1,1h-6c-0.6,0-1-0.4-1-1V10 c0-0.6,0.4-1,1-1h4.3c0.5,0,0.9,0.6,1.5,1.2c0.6,0.6,1.2,1,1.2,1.6V20z"/>
  </symbol>
</svg>
