<svg xmlns="http://www.w3.org/2000/svg" style="display: none;">
  <symbol id="finder" viewBox="0 0 16 16">
    <path d="M15.9,15.4l-4.1-4.1c1.1-1.2,1.7-2.8,1.7-4.5c0-3.8-3-6.8-6.8-6.8S0,3,0,6.8s3,6.8,6.8,6.8c1.7,0,3.2-0.6,4.5-1.7l4.1,4.1 c0.1,0.1,0.2,0.1,0.3,0.1c0.1,0,0.2,0,0.3-0.1C16,15.8,16,15.6,15.9,15.4z M0.9,6.9C0.9,3.7,3.5,1,6.8,1s5.9,2.7,5.9,5.9 c0,1.6-0.6,3.1-1.7,4.2l0,0l0,0c-1.1,1.1-2.6,1.7-4.2,1.7C3.4,12.7,0.9,10.1,0.9,6.9z"/>
  </symbol>

  <symbol id="brdBold" viewBox="0 0 24 24" fill="currentColor">
    <path d="M9.03906 18H13.1094C15.5234 18 17.0859 16.6953 17.0859 14.7188C17.0859 13.2266 15.8125 12.0781 14.2891 12.0391V11.9766C15.5938 11.8125 16.5781 10.8359 16.5781 9.53906C16.5781 7.78125 15.2266 6.72656 12.9219 6.72656H9.03906C7.98438 6.72656 7.38281 7.35156 7.38281 8.46094V16.2656C7.38281 17.375 7.98438 18 9.03906 18ZM10.6953 11.2422V9H12.0234C12.8594 9 13.3594 9.42188 13.3594 10.1172C13.3594 10.7969 12.8281 11.2422 11.9766 11.2422H10.6953ZM10.6953 15.7266V13.1406H12.1328C13.125 13.1406 13.7188 13.6094 13.7188 14.4141C13.7188 15.2656 13.1328 15.7266 12.1094 15.7266H10.6953Z" />
  </symbol>
  <symbol id="brdItalic" viewBox="0 0 24 24" fill="currentColor">
    <path d="M10.8991 7.88485C10.9562 7.24246 11.4944 6.75 12.1393 6.75C12.8705 6.75 13.4443 7.37704 13.3795 8.10533L12.6009 16.8651C12.5438 17.5075 12.0056 18 11.3607 18C10.6295 18 10.0557 17.373 10.1205 16.6447L10.8991 7.88485Z"/>
  </symbol>
  <symbol id="brdUnder" viewBox="0 0 24 24" fill="currentColor">
    <path d="M7,16.2h10c0.6,0,1,0.4,1,1l0,0c0,0.6-0.4,1-1,1H7c-0.6,0-1-0.4-1-1l0,0C6,16.6,6.4,16.2,7,16.2z"/>
    <path d="M15.5,6.5c-0.6,0-1,0.4-1,1v0.7V11c0,1.4-1.1,2.5-2.5,2.5S9.6,12.4,9.6,11V8.2V7.5c0-0.6-0.4-1-1-1c-0.6,0-1,0.4-1,1v2.9V11 v0.5c0,0.3,0.1,0.6,0.2,0.8c0,0,0,0.1,0,0.1c0.1,0.2,0.2,0.5,0.3,0.7c0,0,0,0,0,0c0.3,0.5,0.6,0.9,1,1.3l0,0l0,0 c0.8,0.7,1.8,1.1,3,1.1s2.2-0.4,3-1.1l0,0l0,0c0.4-0.4,0.7-0.8,1-1.3c0,0,0,0,0,0c0.1-0.2,0.2-0.4,0.3-0.7c0,0,0-0.1,0-0.1 c0.1-0.3,0.1-0.5,0.2-0.8V11v-0.6V7.5C16.5,6.9,16.1,6.5,15.5,6.5z"/>
  </symbol>
  <symbol id="brdStrike" viewBox="0 0 24 24" fill="currentColor">
    <path d="M14.2,14.9c0,0.8-0.9,1.4-2.1,1.4c-1.1,0-2-0.4-2.3-1.3c-0.3-0.5-0.6-0.7-1.1-0.7c-0.6,0-1,0.4-1,1 c0,0.2,0,0.4,0.1,0.6c0.5,1.2,1.9,2.2,4.3,2.2c2.7,0,4.4-1.3,4.5-3.4h-2.4C14.2,14.8,14.2,14.8,14.2,14.9z"/>
	  <path d="M17,11.8h-2.8c-0.3-0.1-0.7-0.2-1.1-0.3l-1.2-0.2c-1.3-0.3-1.9-0.7-1.9-1.4c0-0.8,0.8-1.4,1.9-1.4 c1,0,1.7,0.4,2.1,1.2c0.3,0.5,0.6,0.7,1.1,0.7c0.6,0,1-0.4,1-0.9c0-0.2,0-0.4-0.1-0.5c-0.5-1.5-2.1-2.3-4.1-2.3 c-2.5,0-4.3,1.4-4.3,3.4c0,0.7,0.2,1.3,0.6,1.8H7c-0.6,0-1,0.4-1,1s0.4,1,1,1h10c0.6,0,1-0.4,1-1S17.6,11.8,17,11.8z"/>
  </symbol>
  <symbol id="brdCode" viewBox="0 0 24 24" fill="currentColor">
    <path d="M19.7,11.3l-4-4c-0.4-0.4-1-0.4-1.4,0c-0.4,0.4-0.4,1,0,1.4l3.3,3.3l-3.3,3.3c-0.4,0.4-0.4,1,0,1.4 c0.4,0.4,1,0.4,1.4,0l4-4C20.1,12.3,20.1,11.7,19.7,11.3z"/>
    <path d="M4.3,12.7l4,4c0.4,0.4,1,0.4,1.4,0c0.4-0.4,0.4-1,0-1.4L6.4,12l3.3-3.3c0.4-0.4,0.4-1,0-1.4 c-0.4-0.4-1-0.4-1.4,0l-4,4C3.9,11.7,3.9,12.3,4.3,12.7z"/>
  </symbol>
  <symbol id="brdUL" viewBox="0 0 24 24" fill="currentColor">
    <circle cx="7" cy="8" r="1"/>
    <circle cx="7" cy="12" r="1"/>
    <circle cx="7" cy="16" r="1"/>
    <path d="M17,9h-6c-0.6,0-1-0.4-1-1v0c0-0.6,0.4-1,1-1h6c0.6,0,1,0.4,1,1v0C18,8.6,17.6,9,17,9z"/>
    <path d="M17,13h-6c-0.6,0-1-0.4-1-1v0c0-0.6,0.4-1,1-1h6c0.6,0,1,0.4,1,1v0C18,12.6,17.6,13,17,13z"/>
    <path d="M17,17h-6c-0.6,0-1-0.4-1-1v0c0-0.6,0.4-1,1-1h6c0.6,0,1,0.4,1,1v0C18,16.6,17.6,17,17,17z"/>
  </symbol>
  <symbol id="brdOL" viewBox="0 0 24 24" fill="currentColor">
    <path d="M6.8,11.1c0.3,0,0.5-0.2,0.5-0.5V8c0-0.4-0.2-0.6-0.6-0.6c-0.2,0-0.4,0-0.6,0.2L5.5,8C5.4,8.1,5.3,8.2,5.3,8.4 c0,0.2,0.1,0.3,0.3,0.3c0.1,0,0.2,0,0.2-0.1l0.4-0.3h0v2.2C6.3,10.9,6.5,11.1,6.8,11.1z"/>
    <path d="M6.1,17h2c0.3,0,0.4-0.2,0.4-0.4c0-0.2-0.1-0.4-0.4-0.4H6.9v0l0.6-0.6c0.5-0.5,0.8-0.7,0.8-1.2 c0-0.6-0.5-1.1-1.4-1.1c-0.6,0-1.1,0.3-1.3,0.7c0,0.1,0,0.1,0,0.2c0,0.2,0.2,0.4,0.4,0.4c0.2,0,0.3-0.1,0.5-0.3 c0.1-0.2,0.3-0.3,0.4-0.3c0.3,0,0.4,0.2,0.4,0.4c0,0.2-0.1,0.4-0.5,0.7l-1,0.8c-0.2,0.2-0.3,0.3-0.3,0.5C5.6,16.8,5.8,17,6.1,17z"/>
    <path d="M17,9h-6c-0.6,0-1-0.4-1-1l0,0c0-0.6,0.4-1,1-1h6c0.6,0,1,0.4,1,1l0,0C18,8.6,17.6,9,17,9z"/>
    <path d="M17,13h-6c-0.6,0-1-0.4-1-1l0,0c0-0.6,0.4-1,1-1h6c0.6,0,1,0.4,1,1l0,0C18,12.6,17.6,13,17,13z"/>
    <path d="M17,17h-6c-0.6,0-1-0.4-1-1l0,0c0-0.6,0.4-1,1-1h6c0.6,0,1,0.4,1,1l0,0C18,16.6,17.6,17,17,17z"/>
  </symbol>
  <symbol id="brdLink" viewBox="0 0 24 24" fill="currentColor">
    <path d="M18.4,12.7c2-2,2-5.1,0-7.1l0,0c-2-2-5.1-2-7.1,0L9.9,7C9.4,7.6,9,8.2,8.8,8.8C8.1,9,7.5,9.4,7,9.9l-1.4,1.4 c-2,2-2,5.1,0,7.1l0,0c2,2,5.1,2,7.1,0l1.4-1.4c0.5-0.5,0.9-1.1,1.1-1.7c0.6-0.2,1.2-0.6,1.7-1.1L18.4,12.7z M15.5,12.7l-2.8,2.8 l-1.5,1.5c-1.1,1.1-2.9,1.1-4,0l-0.2-0.2c-1.1-1.1-1.1-2.9,0-4l1.6-1.6l2.8-2.8l1.6-1.6c1.1-1.1,2.9-1.1,4,0L17,7.1 c1.1,1.1,1.1,2.9,0,4L15.5,12.7z"/>
    <path d="M14.1,9.9c-0.4-0.4-1-0.4-1.4,0l-2.8,2.8c-0.4,0.4-0.4,1,0,1.4c0.4,0.4,1,0.4,1.4,0l2.8-2.8 C14.5,10.9,14.5,10.2,14.1,9.9z"/>
  </symbol>
  <symbol id="brdAddr" viewBox="0 0 24 24" fill="currentColor">
    <path d="M4.34619 12.313C4.34619 17.0815 7.63965 20.0317 12.334 20.0317C13.4937 20.0317 14.3657 19.9204 14.9409 19.7163C15.4326 19.5308 15.6182 19.2896 15.6182 18.9185C15.6182 18.5288 15.377 18.269 14.8853 18.269C14.7554 18.269 14.6255 18.2783 14.4678 18.3062C13.8555 18.436 13.3452 18.5195 12.6123 18.5195C8.66016 18.5195 6.05322 16.2002 6.05322 12.3594C6.05322 8.60205 8.521 6.0415 12.1948 6.0415C15.5161 6.0415 17.9839 8.11035 17.9839 11.6821C17.9839 13.4355 17.3809 14.6416 16.481 14.6416C15.8965 14.6416 15.5718 14.2705 15.5718 13.6211V9.51123C15.5718 8.88037 15.2192 8.50928 14.6069 8.50928C13.9946 8.50928 13.6421 8.88037 13.6421 9.51123V9.81738H13.5029C13.1318 8.98242 12.3062 8.50928 11.2856 8.50928C9.45801 8.50928 8.19629 10.04 8.19629 12.313C8.19629 14.6509 9.48584 16.2373 11.4062 16.2373C12.4731 16.2373 13.2432 15.7271 13.6328 14.79H13.772C13.9946 15.6992 14.8667 16.228 16.0449 16.228C18.2993 16.228 19.6816 14.3169 19.6816 11.4873C19.6816 7.29395 16.5923 4.5293 12.2041 4.5293C7.56543 4.5293 4.34619 7.64648 4.34619 12.313ZM11.8887 14.5303C10.9053 14.5303 10.3208 13.7231 10.3208 12.3594C10.3208 11.0049 10.9053 10.1978 11.8887 10.1978C12.8813 10.1978 13.5029 11.0234 13.5029 12.3594C13.5029 13.7046 12.8813 14.5303 11.8887 14.5303Z"/>
  </symbol>
  <symbol id="brdClip" viewBox="0 0 24 24" fill="currentColor">
    <path d="M16,6H6.5C4,6,2,8,2,10.5S4,15,6.5,15H13c1.7,0,3-1.3,3-3s-1.3-3-3-3H9c-0.6,0-1,0.4-1,1s0.4,1,1,1h4 c0.6,0,1,0.4,1,1s-0.4,1-1,1H6.5C5.1,13,4,11.9,4,10.5S5.1,8,6.5,8H16c2.2,0,4,1.8,4,4c0,2.2-1.8,4-4,4H9c-0.6,0-1,0.4-1,1 s0.4,1,1,1h7c3.3,0,6-2.7,6-6S19.3,6,16,6z"/>
  </symbol>
  <symbol id="brdSend" viewBox="0 0 42 42" fill="currentColor">
    <path d="M14.9005 20.09C14.3893 20.0389 14 19.6088 14 19.095V14.618C14 13.8747 14.7823 13.3912 15.4472 13.7236L28.2111 20.1056C28.9482 20.4741 28.9482 21.5259 28.2111 21.8944L15.4472 28.2764C14.7823 28.6088 14 28.1253 14 27.382V22.905C14 22.3912 14.3893 21.9611 14.9005 21.91L21.5124 21.2488C21.8126 21.2187 21.8126 20.7813 21.5124 20.7512L14.9005 20.09Z"/>
  </symbol>
  <symbol id="brdSmile" viewBox="0 0 42 42" fill="currentColor">
    <path d="M21,13c-4.4,0-8,3.6-8,8s3.6,8,8,8s8-3.6,8-8S25.4,13,21,13z M21,27c-3.3,0-6-2.7-6-6s2.7-6,6-6s6,2.7,6,6 S24.3,27,21,27z"/>
    <path d="M19,18L19,18c0.6,0,1,0.4,1,1v2c0,0.6-0.4,1-1,1l0,0c-0.6,0-1-0.4-1-1v-2C18,18.4,18.4,18,19,18z"/>
    <path d="M23,18L23,18c0.6,0,1,0.4,1,1v2c0,0.6-0.4,1-1,1l0,0c-0.6,0-1-0.4-1-1v-2C22,18.4,22.4,18,23,18z"/>
  </symbol>
</svg>
