<svg xmlns="http://www.w3.org/2000/svg" style="display: none;">
  <symbol id="add-group" viewBox="0 0 100 100">
    <path
        d="M89.3,14.3H47.9l-9.6-9.7c-0.7-0.7-1.6-1-2.5-1h-25C4.8,3.6,0,8.4,0,14.3v71.4c0,5.9,4.8,10.7,10.7,10.7h78.6
c5.9,0,10.7-4.8,10.7-10.7V25C100,19.1,95.2,14.3,89.3,14.3z M10.7,10.7h23.5l9.6,9.7c0.7,0.7,1.6,1,2.5,1h42.9c2,0,3.6,1.6,3.6,3.6
v7.8c-1.1-0.4-2.4-0.6-3.6-0.6H10.7c-1.2,0-2.4,0.2-3.6,0.6V14.3C7.1,12.3,8.7,10.7,10.7,10.7z M92.9,85.7c0,2-1.6,3.6-3.6,3.6H10.7
c-2,0-3.6-1.6-3.6-3.6V42.9c0-2,1.6-3.6,3.6-3.6h78.6c2,0,3.6,1.6,3.6,3.6V85.7z"
    />
    <path
        d="M62.5,59.4h-9.4V50c0-1.7-1.4-3.1-3.1-3.1c-1.7,0-3.1,1.4-3.1,3.1v9.4h-9.4c-1.7,0-3.1,1.4-3.1,3.1c0,1.7,1.4,3.1,3.1,3.1
h9.4V75c0,1.7,1.4,3.1,3.1,3.1c1.7,0,3.1-1.4,3.1-3.1v-9.4h9.4c1.7,0,3.1-1.4,3.1-3.1C65.6,60.8,64.2,59.4,62.5,59.4z"
    />
  </symbol>
  <symbol id="add" viewBox="0 0 100 100">
    <path
        d="M53.3,46.7h18.3c1.8,0,3.3,1.5,3.3,3.3s-1.5,3.3-3.3,3.3H53.3v18.3c0,1.8-1.5,3.3-3.3,3.3s-3.3-1.5-3.3-3.3V53.3H28.3
c-1.8,0-3.3-1.5-3.3-3.3s1.5-3.3,3.3-3.3h18.3V28.3c0-1.8,1.5-3.3,3.3-3.3s3.3,1.5,3.3,3.3V46.7z M50,93.3
c23.9,0,43.3-19.4,43.3-43.3S73.9,6.7,50,6.7S6.7,26.1,6.7,50S26.1,93.3,50,93.3z M50,100C22.4,100,0,77.6,0,50S22.4,0,50,0
s50,22.4,50,50S77.6,100,50,100z"
    />
  </symbol>
  <symbol id="checked" viewBox="0 0 100 100">
    <g>
      <g>
        <path
            d="M5273.1,2400.1v-2c0-2.8-5-4-9.7-4s-9.7,1.3-9.7,4v2c0,1.8,0.7,3.6,2,4.9l5,4.9c0.3,0.3,0.4,0.6,0.4,1v6.4
  c0,0.4,0.2,0.7,0.6,0.8l2.9,0.9c0.5,0.1,1-0.2,1-0.8v-7.2c0-0.4,0.2-0.7,0.4-1l5.1-5C5272.4,2403.7,5273.1,2401.9,5273.1,2400.1z
  M5263.4,2400c-4.8,0-7.4-1.3-7.5-1.8l0,0c0.1-0.5,2.7-1.8,7.5-1.8s7.3,1.3,7.5,1.8C5270.7,2398.7,5268.2,2400,5263.4,2400z"
        />
        <path
            d="M5268.4,2410.3c-0.6,0-1,0.4-1,1s0.4,1,1,1h4.3c0.6,0,1-0.4,1-1s-0.4-1-1-1H5268.4z"
        />
        <path
            d="M5272.7,2413.7h-4.3c-0.6,0-1,0.4-1,1s0.4,1,1,1h4.3c0.6,0,1-0.4,1-1C5273.7,2414.1,5273.3,2413.7,5272.7,2413.7z"
        />
        <path
            d="M5272.7,2417h-4.3c-0.6,0-1,0.4-1,1s0.4,1,1,1h4.3c0.6,0,1-0.4,1-1C5273.7,2417.5,5273.3,2417,5272.7,2417z"
        />
      </g>
      <g>
        <path
            d="M80.8,49.7v27.5c0,4-3.2,7.2-7.2,7.2H22.8c-4,0-7.2-3.3-7.2-7.2V26.3c0-4,3.3-7.2,7.2-7.2h39.8l11-13H22.8
  c-11.2,0-20.3,9.1-20.3,20.2v50.8c0,11.2,9.1,20.3,20.3,20.3h50.8c11.2,0,20.2-9.1,20.2-20.3V32.6c0-0.3,0-0.7-0.1-1L80.8,49.7z"
        />
        <path
            d="M96.4,6.4l-4.1-3.2c-1.2-1-3-0.8-4,0.4L51.5,47.5c-0.4,0.5-1.2,0.5-1.6,0L39.3,34.8c-1-1.2-2.8-1.4-4-0.4l-6.7,5.2
  c-1.2,1-1.5,2.7-0.6,4l20.3,27.9c1.2,1.6,3.5,1.6,4.7,0l43.9-61C97.9,9.1,97.6,7.3,96.4,6.4z"
        />
      </g>
    </g>
  </symbol>
  <symbol id="edit" viewBox="0 0 100 100">
    <g transform="translate(0,-952.36218)">
      <path
          d="M44.1,952.4c-1.3,0.1-2.4,1.1-2.8,2.3l-4,11.9c-1.5,0.6-2.8,1.3-4,1.9l-10.6-5.8c-1.3-0.7-2.9-0.5-4,0.6l-7.8,7.8
c-1,1-1.2,2.7-0.6,4l5.8,10.6c-0.7,1.2-1.3,2.5-1.9,4l-11.9,4C1,994.1,0,995.4,0,996.8v11.1c0,1.4,1,2.7,2.3,3.2l11.9,4
c0.6,1.5,1.3,2.8,1.9,4l-5.8,10.6c-0.7,1.3-0.5,2.9,0.6,4l7.8,7.8c1,1,2.7,1.2,4,0.6l10.6-5.8c1.2,0.7,2.5,1.3,4,1.9l4,11.9
c0.4,1.3,1.8,2.3,3.2,2.3h11.1c1.4,0,2.7-1,3.2-2.3l4-11.9c1.5-0.6,2.8-1.3,4-1.9l10.6,5.8c1.3,0.7,2.9,0.5,4-0.6l7.8-7.8
c1-1,1.2-2.7,0.6-4l-5.8-10.6c0.7-1.2,1.3-2.5,1.9-4l11.9-4c1.3-0.4,2.3-1.8,2.3-3.2v-11.1c0-1.4-1-2.7-2.3-3.2l-11.9-4
c-0.6-1.5-1.3-2.8-1.9-4l5.8-10.6c0.7-1.3,0.5-2.9-0.6-4l-7.8-7.8c-1-1-2.7-1.2-4-0.6l-10.8,5.9c-1.2-0.6-2.5-1.2-3.9-1.7
l-3.9-12.3c-0.4-1.3-1.8-2.3-3.2-2.3C51.8,952.4,47.9,952.4,44.1,952.4z M46.8,959h6.2l3.6,11.4c0.3,1,1.2,1.9,2.3,2.2
c1.9,0.6,4.2,1.7,6.1,2.7c1,0.5,2.2,0.5,3.2,0l10-5.5l4.2,4.2l-5.5,10c-0.5,1-0.5,2.2,0,3.2c1.2,2.3,2.6,4.5,3.1,6
c0.3,1,1.1,1.9,2.2,2.2l11,3.7v6.3l-11,3.7c-1,0.3-1.8,1.2-2.2,2.2c-0.5,1.5-1.8,3.8-3.1,6c-0.5,1-0.5,2.2,0,3.2l5.5,10l-4.2,4.2
l-10-5.5c-1-0.5-2.2-0.5-3.2,0c-2.3,1.2-4.5,2.6-6,3.1c-1,0.3-1.9,1.1-2.2,2.2l-3.7,11h-6.3l-3.7-11c-0.3-1-1.2-1.8-2.2-2.2
c-1.5-0.5-3.8-1.8-6-3.1c-1-0.5-2.2-0.5-3.2,0l-10,5.5l-4.2-4.2l5.5-10c0.5-1,0.5-2.2,0-3.2c-1.2-2.3-2.6-4.5-3.1-6
c-0.3-1-1.1-1.9-2.2-2.2l-11-3.7v-6.3l11-3.7c1-0.3,1.8-1.2,2.2-2.2c0.5-1.5,1.8-3.8,3.1-6c0.5-1,0.5-2.2,0-3.2l-5.5-10l4.2-4.2
l10,5.5c1,0.5,2.2,0.5,3.2,0c2.3-1.2,4.5-2.6,6-3.1c1-0.3,1.9-1.1,2.2-2.2L46.8,959z M50,975.7c-14.7,0-26.7,12-26.7,26.7
s12,26.8,26.7,26.7c4.6,0,8.5-0.3,12.7-2.6c1.5-0.9,2.1-3,1.3-4.5c-0.9-1.5-3-2.1-4.5-1.3c-2.9,1.6-5.1,1.8-9.5,1.8
c-11,0.1-20-8.9-20-20c0-11.1,8.9-20,20-20s20,8.9,20,20c0,4.7-0.4,7-2.7,10.3c-1.2,1.4-0.9,3.8,0.6,4.9c1.5,1.1,3.8,0.6,4.8-1
c3.1-4.4,4-8.8,4-14.1C76.7,987.7,64.7,975.7,50,975.7z"
      />
    </g>
  </symbol>
  <symbol id="search" viewBox="0 0 100 100">
    <path
        fill-rule="evenodd"
        clip-rule="evenodd"
        d="M11.3,11.3c15-15,39.4-15,54.4,0c15,15,15,39.4,0,54.4c-15,15-39.4,15-54.4,0
C-3.8,50.6-3.8,26.3,11.3,11.3L11.3,11.3z M21.2,21.2c-9.6,9.5-9.6,25,0,34.6c9.5,9.6,25,9.6,34.6,0c9.5-9.5,9.5-25,0-34.6
C46.2,11.6,30.7,11.6,21.2,21.2z"
    />
    <path
        fill-rule="evenodd"
        clip-rule="evenodd"
        d="M73.3,63l24.4,24.4c6.8,6.8-3.5,17.2-10.3,10.3L63,73.3C67,70.5,70.5,67,73.3,63z"
    />
  </symbol>
  <symbol id="network" viewBox="0 0 120 120">
    <path d="M66.62,110v-1A42.43,42.43,0,0,1,109,66.62h1V85h-1a24.07,24.07,0,0,0-24,24v1Z"></path>
    <path d="M38.31,110v-1A70.77,70.77,0,0,1,109,38.31h1V56.64h-1A52.41,52.41,0,0,0,56.64,109v1Z"></path>
    <path d="M10,110v-1a99.11,99.11,0,0,1,99-99h1V28.33h-1A80.76,80.76,0,0,0,28.33,109v1Z"></path>
    <path d="M94.93,110v-1A14.08,14.08,0,0,1,109,94.93h1V110Z"></path>
  </symbol>

  <symbol id="error" viewBox="0 0 100 100">
    <polygon
        points="64.9,29.7 50,44.6 35.1,29.7 29.7,35.1 44.6,50 29.7,64.9 35.1,70.3 50,55.4 64.9,70.3 70.3,64.9 55.4,50      70.3,35.1    "></polygon>
    <path
        d="M50,2.5C23.8,2.5,2.5,23.8,2.5,50S23.8,97.5,50,97.5S97.5,76.2,97.5,50S76.2,2.5,50,2.5z M50,89.9     C28,89.9,10.1,72,10.1,50S28,10.1,50,10.1S89.9,28,89.9,50S72,89.9,50,89.9z"></path>
  </symbol>
</svg>
