<svg xmlns="http://www.w3.org/2000/svg" style="display: none;">
    <symbol id="datagen" viewBox="0 0 150.000000 96.000000" preserveAspectRatio="xMidYMid meet" style="zoom: 8;">
        <g transform="translate(0.000000,96.000000) scale(0.100000,-0.100000)" fill="#000000" stroke="none">
            <path d="M640,746 l-635,-213 l-3,-29 c-1,-16 32,-132 76,-264 c78,-232 79,-235 108,-238 c17,-1 285,83 669,211 l640,214 l3,29 c1,16 -32,132 -76,264 l-79,235 l-34,2 c-22,1 -260,-74 -669,-211 m493,14 c4,-16 -5,-22 -59,-40 c-35,-12 -64,-24 -64,-27 c0,-24 26,-83 36,-83 c8,0 36,8 63,19 c43,16 51,17 55,4 c10,-26 7,-29 -49,-47 c-36,-11 -55,-22 -55,-33 c0,-24 22,-93 30,-93 c4,0 33,9 65,20 c71,25 71,25 78,0 c4,-17 -6,-23 -79,-47 c-46,-15 -85,-25 -87,-22 c-6,6 -107,312 -104,314 c3,3 151,53 158,54 c4,1 9,-8 12,-19 m-248,-127 l-24,-76 l72,-76 c40,-42 75,-77 80,-79 c4,-2 5,-8 1,-13 c-14,-23 -47,-4 -99,56 c-32,36 -61,65 -64,65 c-4,0 -12,-17 -17,-37 c-8,-29 -6,-50 7,-90 c16,-49 16,-51 0,-56 c-15,-4 -26,21 -70,155 c-29,88 -51,162 -47,165 c15,15 35,-12 52,-71 c10,-36 23,-65 28,-63 c6,2 16,28 23,58 c25,105 35,128 57,132 c12,2 22,5 23,6 c1,0 -9,-33 -22,-76 m-217,-167 c51,-74 95,-141 98,-150 c11,-30 -31,-18 -49,14 c-21,35 -23,35 -87,14 l-49,-16 l5,-43 c6,-36 4,-43 -13,-47 c-19,-5 -21,2 -27,170 c-7,173 -5,191 25,192 c3,0 47,-60 97,-134 m-231,51 c-3,-8 -26,-20 -51,-27 c-26,-7 -48,-16 -50,-19 c-3,-4 1,-26 7,-49 c12,-47 25,-51 82,-28 c29,13 34,12 39,-1 c10,-26 7,-30 -39,-43 c-52,-15 -54,-21 -25,-104 c17,-50 17,-58 4,-63 c-8,-3 -16,-4 -18,-2 c-2,2 -26,75 -53,161 l-50,157 l71,24 c70,24 94,22 83,-6 "></path>
        </g>
    </symbol>
</svg>
