<svg xmlns="http://www.w3.org/2000/svg" style="display: none;">
  <symbol id="activity" viewBox="0 0 32 32">
    <path d="M5,16V28a1,1,0,0,1-2,0V16A13,13,0,0,1,21.42,4.18,1,1,0,1,1,20.58,6,11,11,0,0,0,5,16ZM25.75,7.4a1,1,0,0,0-1.41-.09,1,1,0,0,0-.09,1.41A11,11,0,0,1,16,27H9a1,1,0,0,0,0,2h7A13,13,0,0,0,25.75,7.4ZM8,16a2,2,0,1,0,2-2A2,2,0,0,0,8,16Zm6,0a2,2,0,1,0,2-2A2,2,0,0,0,14,16Zm6,0a2,2,0,1,0,2-2A2,2,0,0,0,20,16Z"></path>
  </symbol>
  <symbol id="activityView" viewBox="0 0 24 24">
    <path d="M16.8,4.9H7.2c-1.3,0-2.3,1-2.3,2.3v9.6c0,1.3,1,2.3,2.3,2.3h9.6c1.3,0,2.3-1,2.3-2.3V7.2C19.1,5.9,18,4.9,16.8,4.9z M7.2,5.8h9.6c0.8,0,1.4,0.6,1.4,1.4v2.2H5.8V7.2C5.8,6.4,6.4,5.8,7.2,5.8z M5.8,16.8v-6.6h3.6v8H7.2C6.4,18.2,5.8,17.5,5.8,16.8z M16.8,18.2h-6.6v-8h8v6.6C18.2,17.5,17.6,18.2,16.8,18.2z"/>
  </symbol>
</svg>
