<svg xmlns="http://www.w3.org/2000/svg" style="display: none;">
    <symbol id="activity" viewBox="0 0 32 32">
        <path d="M5,16V28a1,1,0,0,1-2,0V16A13,13,0,0,1,21.42,4.18,1,1,0,1,1,20.58,6,11,11,0,0,0,5,16ZM25.75,7.4a1,1,0,0,0-1.41-.09,1,1,0,0,0-.09,1.41A11,11,0,0,1,16,27H9a1,1,0,0,0,0,2h7A13,13,0,0,0,25.75,7.4ZM8,16a2,2,0,1,0,2-2A2,2,0,0,0,8,16Zm6,0a2,2,0,1,0,2-2A2,2,0,0,0,14,16Zm6,0a2,2,0,1,0,2-2A2,2,0,0,0,20,16Z"></path>
    </symbol>
    <symbol id="activityView" viewBox="0 0 24 24">
        <path d="M20.3,12l-3.9-1.9c-0.3-0.2-0.7-0.1-0.9,0.1c-0.2,0.1-0.3,0.2-0.4,0.3l-2.8,3.7L8.9,6.6C8.7,6.1,8.3,5.9,7.8,6 c-0.1,0-0.1,0-0.2,0c0,0,0,0,0,0c0,0,0,0,0,0C7.4,6.2,7.2,6.3,7.1,6.5L3.5,13H0v2h4v0c0.4,0,0.7-0.2,0.9-0.5l2.9-5.3l3.3,7.4 c0,0,0,0.1,0.1,0.1c0,0,0,0,0,0c0.1,0.2,0.4,0.4,0.6,0.5c0,0,0,0,0,0c0.1,0,0.2,0,0.3,0c0,0,0.1,0,0.1,0c0.1,0,0.1,0,0.2,0 c0,0,0,0,0.1,0c0,0,0.1-0.1,0.1-0.1c0.1,0,0.1-0.1,0.2-0.2c0,0,0,0,0,0l3.4-4.5l3.4,1.6c0.1,0.1,0.3,0.1,0.4,0.1v0h4v-2H20.3z"/>
    </symbol>
</svg>
