<svg xmlns="http://www.w3.org/2000/svg" style="display: none;">
  <symbol id="recruitment" viewBox="0 0 73 73">
    <path d="M31,31.5c1.3,0,2.4,0.6,3.3,1.7l1.7-2c-1.4-1.6-3.1-2.4-5.2-2.4c-1.9,0-3.4,0.6-4.7,1.9c-1.3,1.3-1.9,2.8-1.9,4.7   s0.6,3.4,1.9,4.6c1.3,1.2,2.9,1.8,4.8,1.8c1.9,0,3.6-0.8,5.1-2.4l-1.8-1.9c-0.9,1.1-2,1.6-3.4,1.6c-1,0-1.9-0.4-2.6-1.1   c-0.7-0.7-1.1-1.6-1.1-2.8c0-1.2,0.4-2.1,1.1-2.8C29,31.8,29.9,31.5,31,31.5z"></path><polygon points="42.8,37.1 39.6,29.1 36.6,29.1 41.6,41.7 44,41.7 49.1,29.1 46,29.1  "></polygon><path d="M69.5,49.8l-12.7-9c0.5-1.7,0.7-3.5,0.7-5.4c0-3.7-1-7.1-2.6-10.1V6.3c0-3.2-2.6-5.8-5.8-5.8H16c-1.5,0-3,0.6-4.1,1.7   l-9.7,9.7C1.1,13,0.5,14.4,0.5,16v50.8c0,3.2,2.6,5.8,5.8,5.8h42.8c3.2,0,5.8-2.6,5.8-5.8v-9.5l6.1,4.4c3.3,2.3,7.8,1.6,10.1-1.7   C73.5,56.6,72.7,52.1,69.5,49.8z M53.5,35.3c0,9.3-7.6,16.9-16.9,16.9s-16.9-7.6-16.9-16.9c0-9.3,7.6-16.9,16.9-16.9   S53.5,26,53.5,35.3z M12.4,7.3v5.1H7.3L12.4,7.3z M50.9,66.7c0,1-0.8,1.8-1.8,1.8H6.3c-1,0-1.8-0.8-1.8-1.8V56.2h2.7   c1.1,0,2-0.9,2-2c0-1.1-0.9-2-2-2H4.5v-4h6.7c1.1,0,2-0.9,2-2c0-1.1-0.9-2-2-2H4.5V16.4h9.9c1.1,0,2-0.9,2-2V4.5h32.7   c1,0,1.8,0.8,1.8,1.8v13.8c-3.7-3.5-8.7-5.6-14.2-5.6c-11.5,0-20.9,9.3-20.9,20.9c0,11.5,9.3,20.9,20.9,20.9   c4.3,0,8.4-1.3,11.7-3.6l2.5,1.8V66.7z M67.9,57.6L67.9,57.6c-1,1.5-3.1,1.8-4.6,0.8l-11.8-8.4c1.5-1.6,2.8-3.4,3.8-5.3L67.1,53   C68.6,54.1,68.9,56.1,67.9,57.6z"></path>
  </symbol>
  <symbol id="position" viewBox="0 0 100 100">
    <g transform="translate(0,-952.36218)"><path d="M 50,5 C 43.403892,5 38,10.40389 38,17 l 0,8 -15,0 c -1.570753,1.57e-4 -2.999843,1.429247 -3,3 l 0,64 c 1.57e-4,1.570753 1.429247,2.999843 3,3 l 54,0 c 1.570753,-1.57e-4 2.999843,-1.429247 3,-3 l 0,-64 c 0.0054,-0.104072 0.0054,-0.208428 0,-0.3125 C 79.84657,26.223659 78.471839,24.992128 77,25 l -15,0 0,-8 C 62,10.40389 56.596108,5 50,5 z m 0,6 c 3.375892,0 6,2.62411 6,6 l 0,8 -12,0 0,-8 c 0,-3.37589 2.624108,-6 6,-6 z m 0,3 c -1.656852,0 -3,1.343148 -3,3 0,1.656852 1.343148,3 3,3 1.656852,0 3,-1.343148 3,-3 0,-1.656852 -1.343148,-3 -3,-3 z m -24,17 48,0 0,58 -48,0 z m 24,5 c -4.934983,0 -9,4.06491 -9,9 0,4.9351 4.065041,9 9,9 4.93496,0 9,-4.0649 9,-9 0,-4.93509 -4.065016,-9 -9,-9 z m 0,6 c 1.692378,0 3,1.30751 3,3 0,1.69254 -1.307598,3 -3,3 -1.692399,0 -3,-1.30746 -3,-3 0,-1.69249 1.307625,-3 3,-3 z m 0,15 C 45.497056,57 41.366412,58.39505 38.25,60.84375 35.133588,63.29235 33,66.9307 33,71 c 1.57e-4,1.570753 1.429247,2.999843 3,3 l 28,0 c 1.570753,-1.57e-4 2.999843,-1.429247 3,-3 C 67,66.9307 64.866412,63.29235 61.75,60.84375 58.633588,58.39505 54.502945,57 50,57 z m 0,6 c 3.229072,0 6.080666,1.0299 8.03125,2.5625 0.93696,0.7362 1.631374,1.5654 2.125,2.4375 l -20.3125,0 c 0.493626,-0.8721 1.18804,-1.7013 2.125,-2.4375 C 43.919334,64.0299 46.770928,63 50,63 z M 35.6875,77 c -1.570984,0.08155 -2.926091,1.585307 -2.84427,3.156277 C 32.925051,81.727247 34.429044,83.082094 36,83 l 28,0 c 1.584938,0.02241 3.042726,-1.414904 3.042726,-3 0,-1.585096 -1.457788,-3.022415 -3.042726,-3 l -28,0 c -0.104072,-0.0054 -0.208428,-0.0054 -0.3125,0 z" transform="translate(0,952.36218)"></path></g>
  </symbol>
  <symbol id="employer2" viewBox="0 0 100 100">
    <g transform="translate(0,-952.36218)"><path d="m 7.6875,969.36214 a 3.0003,3.0003 0 0 0 -2.6875,3 l 0,42.00006 a 3.0003,3.0003 0 0 0 3,3 l 84,0 a 3.0003,3.0003 0 0 0 3,-3 l 0,-42.00006 a 3.0003,3.0003 0 0 0 -3,-3 l -84,0 a 3.0003,3.0003 0 0 0 -0.3125,0 z m 3.3125,6 19,0 0,36.00006 -19,0 0,-36.00006 z m 25,0 28,0 0,36.00006 -28,0 0,-36.00006 z m 34,0 19,0 0,36.00006 -19,0 0,-36.00006 z m -20.03125,2.9375 c -1.581357,0.0163 -3.001619,1.4814 -2.96875,3.0625 l 0,1 -1,0 c -3.858132,0 -7,3.26849 -7,7 0,3.73151 3.141868,7 7,7 l 8,0 c 0.783543,0 1,0.29931 1,1 0,0.70067 -0.216432,1 -1,1 l -10,0 a 3.0003,3.0003 0 1 0 0,6.00006 l 3,0 0,1 c -0.02242,1.5849 1.414904,3.0625 3,3.0625 1.585096,0 3.022415,-1.4776 3,-3.0625 l 0,-1 1,0 c 3.858132,0 7,-3.2685 7,-7.00006 0,-3.73151 -3.141843,-7 -7,-7 l -8,0 c -0.783568,0 -1,-0.29931 -1,-1 0,-0.70069 0.216432,-1 1,-1 l 10,0 a 3.0003,3.0003 0 1 0 0,-6 l -3,0 0,-1 c 0.03331,-1.60193 -1.429062,-3.07937 -3.03125,-3.0625 z M 7.6875,1020.3622 a 3.0040663,3.0040663 0 1 0 0.3125,6 l 84,0 a 3.0003,3.0003 0 1 0 0,-6 l -84,0 a 3.0003,3.0003 0 0 0 -0.3125,0 z m 0,9 a 3.0040663,3.0040663 0 1 0 0.3125,6 l 84,0 a 3.0003,3.0003 0 1 0 0,-6 l -84,0 a 3.0003,3.0003 0 0 0 -0.3125,0 z" fill="#000000" fill-opacity="1" stroke="none" marker="none" visibility="visible" display="inline" overflow="visible"></path></g>
  </symbol>
  <symbol id="employer" viewBox="0 0 100 100">
    <g transform="translate(0,-952.36218)"><path  d="M 37.65625 5 A 3.0003 3.0003 0 0 0 35.15625 9 L 39.90625 22.3125 L 34.96875 77.71875 A 3.0003 3.0003 0 0 0 35.6875 79.9375 L 47.6875 93.9375 A 3.0003 3.0003 0 0 0 52.25 93.9375 L 64.25 79.9375 A 3.0003 3.0003 0 0 0 64.96875 77.71875 L 62.53125 50.40625 L 65.125 58.875 A 3.0052038 3.0052038 0 0 0 70.875 57.125 L 60.15625 22 L 64.78125 9 A 3.0003 3.0003 0 0 0 61.96875 5 L 37.96875 5 A 3.0003 3.0003 0 0 0 37.65625 5 z M 42.21875 11 L 57.71875 11 L 54.875 19 L 45.0625 19 L 42.21875 11 z M 45.71875 25 L 54.21875 25 L 58.84375 77.03125 L 49.96875 87.40625 L 41.09375 77.03125 L 45.71875 25 z " transform="translate(0,952.36218)"></path></g>
  </symbol>
</svg>
