<svg xmlns="http://www.w3.org/2000/svg" style="display: none;">
  <symbol id="task" viewBox="0 0 24 24">
    <path d="M19.2,9.9c-0.1-0.3-0.4-0.5-0.8-0.4c-0.3,0.1-0.5,0.4-0.4,0.8c0.2,0.6,0.2,1.1,0.2,1.7c0,3.4-2.8,6.2-6.2,6.2 S5.8,15.4,5.8,12S8.6,5.8,12,5.8c1.3,0,2.5,0.4,3.5,1.1c0.3,0.2,0.7,0.1,0.9-0.2c0.2-0.3,0.1-0.7-0.2-0.9C14.9,5,13.5,4.5,12,4.5 c-4.1,0-7.5,3.4-7.5,7.5s3.4,7.5,7.5,7.5s7.5-3.4,7.5-7.5C19.5,11.3,19.4,10.6,19.2,9.9z"/>
    <path d="M9.9,10.3c-0.2-0.2-0.6-0.2-0.9,0c-0.2,0.2-0.2,0.6,0,0.9l2.5,2.5c0.1,0.1,0.3,0.2,0.4,0.2c0.2,0,0.3-0.1,0.4-0.2l6.9-6.9 c0.2-0.2,0.2-0.6,0-0.9c-0.2-0.2-0.6-0.2-0.9,0L12,12.4L9.9,10.3z"/>
  </symbol>
  <symbol id="taskOld" viewBox="0 0 24 24">
    <path d="M23.7,3.7l-1.4-1.4l-2.9,2.9C17.5,3.3,14.9,2,12,2C6.5,2,2,6.5,2,12s4.5,10,10,10s10-4.5,10-10c0-1.9-0.5-3.6-1.4-5.1 L23.7,3.7z M20,12c0,4.4-3.6,8-8,8s-8-3.6-8-8s3.6-8,8-8c2.4,0,4.5,1,5.9,2.7L12,12.6L8.7,9.3l-1.4,1.4l3.3,3.3l0.7,0.7 c0.4,0.4,1,0.4,1.4,0l0.7-0.7l5.7-5.7C19.7,9.4,20,10.7,20,12z"/>
  </symbol>
  <symbol id="arrowDown" viewBox="0 0 16 16">
    <path fill-rule="evenodd" clip-rule="evenodd" d="M3.75736 5.75736L7.29289 9.29289L8 10L8.70711 9.29289L12.2426 5.75736L11.5355 5.05025L8 8.58579L4.46447 5.05025L3.75736 5.75736Z"/>
  </symbol>
</svg>
