<svg xmlns="http://www.w3.org/2000/svg" style="display: none;">
  <symbol id="task" viewBox="0 0 24 24">
    <path d="M21.2,4.6c-0.2-0.2-0.6-0.2-0.8,0l-8.1,8.1l-1.9-1.9c-0.2-0.2-0.6-0.2-0.8,0c-0.2,0.2-0.2,0.6,0,0.8l2.3,2.3 c0.1,0.1,0.3,0.2,0.4,0.2s0.3-0.1,0.4-0.2l8.5-8.6C21.4,5.2,21.4,4.8,21.2,4.6z"/>
    <path d="M19.2,11.4c-0.3,0-0.6,0.3-0.6,0.6v5.4c0,0.5-0.4,1-1,1H6.8c-0.5,0-1-0.4-1-1V6.6c0-0.5,0.4-1,1-1h8.5 c0.3,0,0.6-0.3,0.6-0.6s-0.3-0.6-0.6-0.6H6.8c-1.2,0-2.2,1-2.2,2.2v10.9c0,1.2,1,2.2,2.2,2.2h10.9c1.2,0,2.1-1,2.1-2.2V12 C19.8,11.7,19.5,11.4,19.2,11.4z"/>
  </symbol>
  <symbol id="taskOld" viewBox="0 0 24 24">
    <path d="M23.7,3.7l-1.4-1.4l-2.9,2.9C17.5,3.3,14.9,2,12,2C6.5,2,2,6.5,2,12s4.5,10,10,10s10-4.5,10-10c0-1.9-0.5-3.6-1.4-5.1 L23.7,3.7z M20,12c0,4.4-3.6,8-8,8s-8-3.6-8-8s3.6-8,8-8c2.4,0,4.5,1,5.9,2.7L12,12.6L8.7,9.3l-1.4,1.4l3.3,3.3l0.7,0.7 c0.4,0.4,1,0.4,1.4,0l0.7-0.7l5.7-5.7C19.7,9.4,20,10.7,20,12z"/>
  </symbol>
  <symbol id="arrowDown" viewBox="0 0 16 16">
    <path fill-rule="evenodd" clip-rule="evenodd" d="M3.75736 5.75736L7.29289 9.29289L8 10L8.70711 9.29289L12.2426 5.75736L11.5355 5.05025L8 8.58579L4.46447 5.05025L3.75736 5.75736Z"/>
  </symbol>
</svg>
