<svg xmlns="http://www.w3.org/2000/svg" style="display: none;">
  <symbol id="task" viewBox="0 0 24 24">
    <path d="M13.87,12.24a1,1,0,0,0-2,0A3.84,3.84,0,0,1,8,16a3.84,3.84,0,0,1-3.91-3.76A3.84,3.84,0,0,1,8,8.47a1,1,0,1,0,0-2,5.85,5.85,0,0,0-5.91,5.77A5.84,5.84,0,0,0,8,18,5.84,5.84,0,0,0,13.87,12.24Z"></path><path d="M7,10.91a1,1,0,0,0-1.41,0,1,1,0,0,0,0,1.42l2.13,2.13a1,1,0,0,0,.71.3h.08a.94.94,0,0,0,.73-.42L14.46,7a1,1,0,1,0-1.63-1.15l-4.5,6.37Z"></path><path d="M21,2H5A1,1,0,0,0,4,3V5.17a1,1,0,0,0,2,0V4H20V20H6V19a1,1,0,0,0-2,0v2a1,1,0,0,0,1,1H21a1,1,0,0,0,1-1V3A1,1,0,0,0,21,2Z"></path>
  </symbol>
</svg>
